<svg width="602" height="454" viewBox="0 0 602 454" fill="none" xmlns="http://www.w3.org/2000/svg">
<g clip-path="url(#clip0_36:121)">
<path opacity="0.18" d="M541.898 400.108C521.558 427.778 487.506 459.831 452.502 453.123C293.972 422.633 303.647 462.423 169 449.312C152.355 447.635 133.463 445.196 111.866 441.69C91.124 438.288 71.5985 429.628 55.1502 416.535C52.3316 414.325 49.513 412.038 46.6943 409.599C30.1253 395.268 14.8133 377.05 15.3465 355.25C16.0322 328.228 26.1259 302.197 37.0576 277.843C51.8364 244.951 72.4049 210.268 66.958 173.642C61.5112 137.397 68.8625 92.9953 87.9074 61.9333C118.379 13.1108 171.705 1.21962 225.03 0.114345C260.263 -0.609799 296.524 1.48641 328.634 16.0074C362.382 31.2525 389.578 59.456 423.858 72.5287C446.712 81.1422 471.699 82.8192 494.057 92.5379C522.206 104.772 543.917 129.012 558.01 156.301C572.103 183.589 579.188 213.889 584.482 243.96C593.586 294.993 572.446 358.604 541.898 400.108Z" fill="#FAC033"/>
<path d="M289.173 179.473L159.516 151.765V111.632H161.192V150.393L289.516 177.834L289.173 179.473Z" fill="#FAC033"/>
<path d="M456.996 250.859L429.572 242.588L434.142 161.255L461.529 169.488L456.996 250.859Z" fill="#FAC033"/>
<path d="M488.953 260.463L461.567 252.231L463.852 211.564L491.239 219.797L488.953 260.463Z" fill="#FAC033"/>
<path d="M520.225 269.877L492.839 261.606L499.2 147.954L526.624 156.186L520.225 269.877Z" fill="#FAC033"/>
<path d="M551.725 279.329L524.339 271.097L532.604 123.409L560.029 131.642L551.725 279.329Z" fill="#FAC033"/>
<path d="M456.996 250.859L429.572 242.588L434.142 161.255L461.529 169.488L456.996 250.859Z" fill="url(#paint0_linear_36:121)"/>
<path d="M488.953 260.463L461.567 252.231L463.852 211.564L491.239 219.797L488.953 260.463Z" fill="url(#paint1_linear_36:121)"/>
<path d="M520.225 269.877L492.839 261.606L499.2 147.954L526.624 156.186L520.225 269.877Z" fill="url(#paint2_linear_36:121)"/>
<path d="M551.725 279.329L524.339 271.097L532.604 123.409L560.029 131.642L551.725 279.329Z" fill="url(#paint3_linear_36:121)"/>
<path d="M235.543 419.203L187.436 440.889C181.303 443.671 175.171 446.454 169 449.122C152.355 447.445 133.463 445.005 111.866 441.499C91.124 438.098 71.5985 429.438 55.1502 416.345C52.3316 414.134 49.513 411.847 46.6943 409.408L141.081 395.078C152.218 393.701 163.207 391.315 173.914 387.95C177.723 386.655 196.349 385.244 189.569 394.887C188.659 395.961 187.493 396.787 186.179 397.288L155.174 412.305C152.681 413.267 150.496 414.887 148.851 416.992C148.048 418.07 147.698 419.418 147.876 420.75C148.054 422.082 148.746 423.291 149.803 424.12C150.991 424.675 152.307 424.899 153.612 424.767C182.941 423.891 211.242 412.343 240.609 412.152C242.056 414.858 238.514 417.869 235.543 419.203Z" fill="url(#paint4_linear_36:121)"/>
<path d="M278.622 198.873L308.523 144.791C308.731 144.413 309.053 144.111 309.443 143.926C309.832 143.741 310.27 143.684 310.694 143.762L373.923 153.861C374.364 153.948 374.779 154.133 375.139 154.403C375.498 154.673 375.791 155.021 375.997 155.421C376.202 155.821 376.314 156.262 376.324 156.711C376.334 157.161 376.243 157.607 376.056 158.016L342.156 219.454L278.622 198.873Z" fill="url(#paint5_linear_36:121)"/>
<path d="M214.175 201.807L214.974 204.628C215.102 205.104 215.341 205.543 215.672 205.907C216.004 206.272 216.417 206.552 216.879 206.724L273.442 227.686C274.152 227.982 274.924 228.099 275.689 228.029L338.461 224.218C338.767 224.194 339.064 224.109 339.337 223.97C339.61 223.83 339.853 223.638 340.051 223.404C340.249 223.17 340.399 222.9 340.492 222.608C340.586 222.315 340.62 222.008 340.594 221.702V218.996L214.175 201.807Z" fill="url(#paint6_linear_36:121)"/>
<path d="M276.984 198.492L306.885 144.257C307.082 143.879 307.396 143.574 307.781 143.388C308.165 143.203 308.599 143.147 309.018 143.228L372.285 153.29C372.722 153.381 373.134 153.569 373.489 153.841C373.843 154.113 374.132 154.462 374.334 154.861C374.535 155.261 374.644 155.7 374.652 156.147C374.66 156.595 374.567 157.038 374.38 157.444L340.518 219.034L276.984 198.492Z" fill="#473F47"/>
<path d="M340.518 219.034L274.547 222.808C274.053 222.842 273.558 222.764 273.099 222.579L214.175 201.807L276.984 198.492L340.518 219.034Z" fill="url(#paint7_linear_36:121)"/>
<path d="M246.056 201.236L299.457 218.158L328.215 216.862L276.527 199.521L246.056 201.236Z" fill="#473F47"/>
<path d="M234.248 207.562L256.378 205.428L283.155 213.775L261.139 216.557L234.248 207.562Z" fill="#473F47"/>
<path d="M237.638 210.116C238.413 211.291 239.511 212.218 240.799 212.784C242.704 213.508 250.931 216.595 250.931 216.595C251.348 216.652 251.773 216.609 252.17 216.47C252.567 216.33 252.926 216.099 253.217 215.795L237.638 210.116Z" fill="#EAEAEA"/>
<path d="M279.117 197.158L338.271 216.595L369.733 158.244L307.113 146.429L279.117 197.158Z" fill="white"/>
<path opacity="0.43" d="M312.636 158.74C313.15 158.842 313.65 159.008 314.122 159.235C314.33 159.314 314.561 159.314 314.769 159.235" stroke="#F8F8F8" stroke-width="0.308261" stroke-linecap="round" stroke-linejoin="round"/>
<path d="M182.255 384.025C181.278 385.177 180.695 386.611 180.59 388.119C180.485 389.626 180.864 391.128 181.672 392.405C182.48 393.681 183.675 394.666 185.081 395.216C186.488 395.765 188.034 395.85 189.492 395.459C190.002 395.333 190.473 395.085 190.864 394.735C191.74 393.934 191.854 392.6 192.654 391.762C193.513 391.107 194.521 390.675 195.587 390.504C197.457 389.835 199.225 388.912 200.843 387.76C201.084 387.6 201.302 387.408 201.491 387.188C201.649 386.894 201.74 386.569 201.757 386.235C202.139 384.534 201.867 382.752 200.996 381.243C200.519 380.662 199.921 380.193 199.243 379.871C197.993 379.101 196.56 378.68 195.092 378.651C193.944 378.722 192.814 378.966 191.74 379.375C188.712 380.218 185.86 381.599 183.322 383.453" fill="#FAC033"/>
<path d="M188.159 370.457L183.131 387.417C183.131 387.417 184.084 391.686 189.454 389.894C194.825 388.103 199.358 374.649 199.358 374.649L188.159 370.457Z" fill="#FCBCB8"/>
<path d="M241.866 405.902C243.255 405.718 244.655 405.629 246.056 405.635C246.774 405.647 247.482 405.806 248.136 406.101C248.791 406.395 249.379 406.821 249.865 407.35C250.527 408.389 250.792 409.632 250.61 410.851C250.427 412.07 249.811 413.182 248.874 413.982C246.933 415.506 244.591 416.433 242.132 416.649C240.615 416.992 239.041 416.992 237.524 416.649C235.619 416.116 233.715 414.591 231.924 415.125C231.125 415.472 230.381 415.934 229.715 416.497C228.413 417.399 226.826 417.792 225.254 417.603C223.682 417.413 222.234 416.654 221.183 415.468C220.644 414.664 220.245 413.775 220.002 412.838C219.479 411.403 219.399 409.843 219.773 408.361C220.146 406.88 220.956 405.545 222.097 404.53C225.068 402.471 227.354 403.882 230.21 404.834C233.977 406.009 237.949 406.373 241.866 405.902Z" fill="#FAC033"/>
<path d="M239.39 389.475L231.772 407.121C229.59 408.436 227.008 408.923 224.497 408.493L221.45 407.388L224.078 382.729L239.39 389.475Z" fill="#FCBCB8"/>
<path d="M294.658 209.964C295.153 209.316 295.801 208.592 296.601 208.706C297.401 208.82 297.553 209.125 298.048 209.011C298.337 208.89 298.587 208.692 298.772 208.439C299.935 207.274 301.211 206.227 302.581 205.314C303.425 204.606 304.434 204.121 305.514 203.904C306.286 203.823 307.065 203.98 307.746 204.355C308.427 204.729 308.977 205.303 309.323 206C310.04 207.386 310.216 208.988 309.818 210.497C309.416 211.976 308.8 213.389 307.989 214.69C307.465 215.653 306.826 216.549 306.085 217.357C303.302 219.298 300.211 220.754 296.943 221.664C296.616 221.852 296.252 221.969 295.877 222.007C295.229 222.007 294.734 221.436 294.353 220.902C293.167 219.301 292.455 217.4 292.297 215.414C292.475 213.39 293.304 211.478 294.658 209.964Z" fill="#FCBCB8"/>
<path d="M265.024 190.831C265.38 190.696 265.773 190.696 266.129 190.831C266.313 190.99 266.479 191.169 266.624 191.365C267.272 192.012 268.338 192.051 269.176 192.394C269.71 192.663 270.18 193.044 270.555 193.511C270.929 193.978 271.199 194.52 271.347 195.1C271.66 196.267 271.801 197.474 271.766 198.682C271.808 199.314 271.73 199.947 271.538 200.55C271.44 200.854 271.253 201.121 271.002 201.318C270.751 201.515 270.447 201.632 270.128 201.655C269.601 201.582 269.102 201.371 268.681 201.045C267.818 200.583 266.822 200.435 265.862 200.626C264.613 201.025 263.412 201.562 262.282 202.227C261.888 202.541 261.422 202.753 260.927 202.846C260.432 202.939 259.921 202.908 259.44 202.758C258.959 202.608 258.522 202.341 258.168 201.983C257.813 201.625 257.552 201.185 257.406 200.702C256.34 198.53 255.197 196.052 257.406 194.261C259.59 192.452 262.222 191.266 265.024 190.831Z" fill="#FCBCB8"/>
<path d="M197.225 271.935C197.76 281.225 198.828 290.476 200.424 299.643C202.481 308.752 203.738 319.081 203.738 319.081L184.693 371.981C184.693 371.981 196.12 379.604 203.738 376.555C211.356 373.506 229.982 333.03 229.982 333.03L237.143 286.837L218.098 265.761L197.225 271.935Z" fill="#473F47"/>
<path d="M249.674 268.238C249.674 268.238 263.12 311.229 263.12 322.396C263.12 333.563 246.856 388.522 246.856 388.522C246.856 388.522 229.22 394.315 225.106 388.522L221.221 382.729L231.01 327.199C231.01 327.199 216.955 298.271 214.479 290.801C212.97 286.236 211.886 281.54 211.242 276.775L249.674 268.238Z" fill="#473F47"/>
<path d="M244.075 150.546C245.669 153.585 246.689 156.893 247.084 160.303C247.26 162.014 246.979 163.741 246.27 165.308C245.56 166.874 244.448 168.225 243.047 169.221C242.183 169.589 241.375 170.077 240.647 170.669C238.095 173.223 241.028 177.796 239.542 181.036C238.945 182.11 237.981 182.933 236.826 183.353C235.672 183.773 234.405 183.762 233.258 183.323C232.128 182.829 231.123 182.091 230.313 181.162C229.503 180.232 228.908 179.135 228.573 177.949C227.931 175.578 227.649 173.124 227.735 170.669L227.468 156.072C227.12 152.817 227.646 149.528 228.992 146.544C229.927 145.003 231.267 143.747 232.865 142.914C234.463 142.081 236.259 141.702 238.057 141.818C241.637 142.313 242.704 147.649 244.075 150.546Z" fill="#FCBCB8"/>
<path d="M296.563 223.379C296.563 223.379 267.653 248.381 265.596 248.381C263.539 248.381 250.703 232.679 250.703 232.679L249.674 268.238C246.098 270.278 242.381 272.061 238.552 273.574C231.89 276.468 224.672 277.86 217.412 277.652C210.309 277.477 203.366 275.511 197.225 271.935L205.871 188.087C205.871 188.087 222.25 176.653 227.849 178.444C231.857 179.131 235.953 179.131 239.961 178.444C248.036 177.415 256.302 188.087 256.302 188.087L267.043 222.388L292.22 213.699C293.844 214.677 295.131 216.128 295.907 217.858C296.683 219.589 296.912 221.515 296.563 223.379Z" fill="#FAC033"/>
<path d="M241.523 134.691C237.518 132.232 232.961 130.816 228.268 130.575C225.704 130.206 223.092 130.378 220.599 131.08C218.106 131.783 215.788 133 213.794 134.653C208.309 139.683 207.737 148.03 207.814 155.462C207.89 162.894 208.004 171.05 203.395 176.844C199.586 181.76 193.073 183.78 188.159 187.553C185.7 189.316 183.653 191.592 182.16 194.224C180.668 196.857 179.764 199.782 179.513 202.798C178.332 225.666 214.175 215.757 225.982 210.726C228.062 209.944 229.984 208.795 231.658 207.334C233.426 205.524 234.733 203.315 235.467 200.893C238.241 192.786 237.763 183.919 234.134 176.157C233.6 175.014 232.991 173.604 233.753 172.575C234.169 172.113 234.692 171.759 235.276 171.546C236.754 170.913 238.013 169.861 238.9 168.52C239.787 167.179 240.262 165.607 240.266 163.999C239.8 161.664 238.722 159.493 237.143 157.711C236.363 156.809 235.822 155.726 235.569 154.561C235.316 153.395 235.36 152.185 235.695 151.041C236.533 149.25 238.514 148.373 239.961 147.23C241.448 145.776 242.467 143.911 242.888 141.874C243.309 139.837 243.112 137.72 242.323 135.796C242.112 135.39 241.842 135.018 241.523 134.691Z" fill="#F7A463"/>
<path opacity="0.1" d="M250.703 232.679L249.674 268.238C246.098 270.278 242.381 272.061 238.552 273.574L241.218 221.016L250.703 232.679Z" fill="#020202"/>
<path d="M570.961 288.285L411.25 239.539V238.396C411.517 232.831 417.802 101.761 419.706 87.5452L422.639 87.9644C420.811 101.342 415.021 224.103 414.26 237.367L571.76 285.351L570.961 288.285Z" fill="#FAC033"/>
<g opacity="0.41">
<path opacity="0.41" d="M302.695 189.154L296.029 186.829L299.419 180.922L306.085 183.246L302.695 189.154Z" fill="#FAC033"/>
</g>
<path d="M309.323 191.479L302.657 189.154L308.637 178.635L315.303 180.998L309.323 191.479Z" fill="#FAC033"/>
<g opacity="0.5">
<path opacity="0.5" d="M315.912 193.842L309.246 191.479L318.045 176.119L324.711 178.482L315.912 193.842Z" fill="#FAC033"/>
</g>
<path d="M322.54 196.167L315.874 193.804L327.339 173.718L334.005 176.081L322.54 196.167Z" fill="#FAC033"/>
<path d="M329.167 198.492L322.502 196.129L336.671 171.317L343.337 173.642L329.167 198.492Z" fill="#FAC033"/>
<path d="M329.167 198.492L322.502 196.129L336.671 171.317L343.337 173.642L329.167 198.492Z" fill="url(#paint8_linear_36:121)"/>
<path d="M452.692 249.41L425.268 241.178L429.838 159.845L457.263 168.078L452.692 249.41Z" fill="#FAC033"/>
<path d="M484.687 259.053L457.263 250.821L459.548 210.116L486.973 218.387L484.687 259.053Z" fill="#FAC033"/>
<path d="M515.959 268.429L488.534 260.196L494.895 146.544L522.32 154.776L515.959 268.429Z" fill="#FAC033"/>
<path d="M547.459 277.919L520.035 269.686L528.3 121.999L555.725 130.232L547.459 277.919Z" fill="#FAC033"/>
<path d="M199.32 103.743C199.32 115.177 191.93 123.943 182.751 123.181L140.166 119.598C130.987 118.836 123.559 108.888 123.559 97.3402C123.559 85.792 131.177 77.1404 140.166 77.9026L146.261 78.3981C146.261 77.8645 146.261 77.2928 146.261 76.7211C146.261 66.1258 153.117 58.1221 161.497 58.8462C169.876 59.5704 176.732 68.7174 176.732 79.3128C176.771 79.8711 176.771 80.4315 176.732 80.9898L182.865 81.5233C191.892 82.2856 199.32 92.233 199.32 103.743Z" fill="white"/>
<path opacity="0.53" d="M199.32 103.743C199.32 115.177 191.93 123.943 182.751 123.181L140.166 119.598C130.987 118.836 123.559 108.888 123.559 97.3402C123.559 85.792 131.177 77.1404 140.166 77.9026L146.261 78.3981C146.261 77.8645 146.261 77.2928 146.261 76.7211C146.261 66.1258 153.117 58.1221 161.497 58.8462C169.876 59.5704 176.732 68.7174 176.732 79.3128C176.771 79.8711 176.771 80.4315 176.732 80.9898L182.865 81.5233C191.892 82.2856 199.32 92.233 199.32 103.743Z" fill="#FAC033"/>
<path d="M193.949 105.42C193.949 116.854 186.56 125.62 177.38 124.858L134.796 121.389C125.616 120.513 118.379 110.565 118.379 99.0171C118.379 87.4689 125.807 78.8173 134.986 79.5796L141.081 80.075C141.081 79.5034 141.081 78.9698 141.081 78.3981C141.081 67.8027 147.899 59.799 156.316 60.5232C164.734 61.2473 171.552 70.3944 171.552 80.9898C171.552 81.5615 171.552 82.1331 171.552 82.6667L177.647 83.2003C186.522 83.9626 193.949 93.91 193.949 105.42Z" fill="white"/>
<path d="M319.074 163.085L302.619 133.09L307.723 99.0934L309.399 99.3601L304.371 132.785L320.559 162.284L319.074 163.085Z" fill="#FAC033"/>
<path d="M337.893 204.633L337.437 206.247L398.939 223.649L399.396 222.035L337.893 204.633Z" fill="#FAC033"/>
<path d="M329.396 48.6701C332.235 49.2229 334.869 50.5407 337.014 52.4814L346.727 38.8751C332.748 25.3831 311.456 29.5374 299.153 48.1365C297.548 50.5509 296.159 53.1016 295.001 55.7591L307.685 61.6284C312.179 52.1765 321.016 46.8788 329.396 48.6701Z" fill="#FAC033"/>
<path d="M346.574 38.9513L336.861 52.5576C334.716 50.6169 332.082 49.2991 329.243 48.7463C320.864 46.955 312.027 52.2527 307.38 61.819L303.571 60.0658L303.838 59.456L295.001 55.3779C296.081 52.9299 297.355 50.5721 298.81 48.3271C311.303 29.6137 332.595 25.4594 346.574 38.9513Z" fill="url(#paint9_linear_36:121)"/>
<path d="M309.589 90.8991L299.914 104.467C298.947 103.334 298.056 102.137 297.248 100.885L306.047 88.498C303.737 85.3548 302.144 81.743 301.381 77.917C300.618 74.0911 300.702 70.1442 301.628 66.3544C302.096 64.1759 302.798 62.0546 303.723 60.0277L307.532 61.819C306.405 63.9891 305.56 66.2946 305.018 68.6793C304.102 72.4915 304.036 76.459 304.826 80.2995C305.616 84.14 307.242 87.7591 309.589 90.8991Z" fill="#FAC033"/>
<path d="M315.379 113.767C309.327 112.424 303.889 109.113 299.914 104.353L306.047 88.3837L309.589 90.7466C316.902 99.8175 329.434 99.1315 337.509 89.1459C345.584 79.1604 346.231 63.7628 338.918 54.8444C338.306 54.0664 337.63 53.3398 336.899 52.6719L343.108 36.5883L346.65 38.9132C360.629 52.4433 361.886 78.4743 349.621 97.1115C341.051 109.956 327.872 116.435 315.417 113.767H315.379Z" fill="#473F47"/>
<path d="M325.853 46.269C328.681 46.8552 331.306 48.1688 333.471 50.0803L343.108 36.5883C329.129 23.0964 307.837 27.2126 295.534 45.8497C293.932 48.2589 292.555 50.8105 291.42 53.4723L304.066 59.3798C308.827 49.8135 317.512 44.4777 325.853 46.269Z" fill="#FAC033"/>
<path d="M306.047 88.4218L297.401 100.808L296.524 101.99C285.974 89.9844 283.993 70.3182 291.306 53.4723L295.115 55.2636L303.952 59.3417L303.685 59.9515C302.755 61.963 302.052 64.0723 301.59 66.2401C300.663 70.0383 300.582 73.9939 301.352 77.8271C302.122 81.6602 303.725 85.2771 306.047 88.4218Z" fill="#FAC033"/>
<path d="M306.047 88.4218L297.401 100.808L296.524 101.99C285.974 89.9844 283.993 70.3182 291.306 53.4723L295.115 55.2636L303.952 59.3417L303.685 59.9515C302.755 61.963 302.052 64.0723 301.59 66.2401C300.663 70.0383 300.582 73.9939 301.352 77.8271C302.122 81.6602 303.725 85.2771 306.047 88.4218Z" fill="url(#paint10_linear_36:121)"/>
<path d="M311.836 111.442C305.785 110.075 300.35 106.754 296.372 101.99L306.047 88.3837C313.398 97.4926 325.892 96.7685 333.967 86.821C342.042 76.8736 342.727 61.3998 335.376 52.5195C334.773 51.7331 334.097 51.0057 333.357 50.347L343.108 36.5502C357.087 50.0421 358.344 76.1113 346.079 94.7485C337.585 107.593 324.368 114.034 311.798 111.366L311.836 111.442Z" fill="#605860"/>
</g>
<defs>
<linearGradient id="paint0_linear_36:121" x1="596.45" y1="79.8159" x2="84.7466" y2="511.237" gradientUnits="userSpaceOnUse">
<stop offset="0.01"/>
<stop offset="0.08" stop-opacity="0.69"/>
<stop offset="0.21" stop-opacity="0.32"/>
<stop offset="1" stop-opacity="0"/>
</linearGradient>
<linearGradient id="paint1_linear_36:121" x1="10939.6" y1="-5730.61" x2="5578.77" y2="-3499.85" gradientUnits="userSpaceOnUse">
<stop offset="0.01"/>
<stop offset="0.08" stop-opacity="0.69"/>
<stop offset="0.21" stop-opacity="0.32"/>
<stop offset="1" stop-opacity="0"/>
</linearGradient>
<linearGradient id="paint2_linear_36:121" x1="12427.2" y1="-14648.6" x2="5515.82" y2="-13335.2" gradientUnits="userSpaceOnUse">
<stop offset="0.01"/>
<stop offset="0.08" stop-opacity="0.69"/>
<stop offset="0.21" stop-opacity="0.32"/>
<stop offset="1" stop-opacity="0"/>
</linearGradient>
<linearGradient id="paint3_linear_36:121" x1="13211.8" y1="-18287.6" x2="5829.03" y2="-17128.7" gradientUnits="userSpaceOnUse">
<stop offset="0.01"/>
<stop offset="0.08" stop-opacity="0.69"/>
<stop offset="0.21" stop-opacity="0.32"/>
<stop offset="1" stop-opacity="0"/>
</linearGradient>
<linearGradient id="paint4_linear_36:121" x1="13360.5" y1="5601.14" x2="12148.4" y2="12404.5" gradientUnits="userSpaceOnUse">
<stop offset="0.01"/>
<stop offset="0.08" stop-opacity="0.69"/>
<stop offset="0.21" stop-opacity="0.32"/>
<stop offset="1" stop-opacity="0"/>
</linearGradient>
<linearGradient id="paint5_linear_36:121" x1="278.622" y1="181.608" x2="376.322" y2="181.608" gradientUnits="userSpaceOnUse">
<stop stop-color="#EAEAEA"/>
<stop offset="1" stop-color="#A3A3A3"/>
</linearGradient>
<linearGradient id="paint6_linear_36:121" x1="-39044.3" y1="-11547.7" x2="-39213.6" y2="-11185.5" gradientUnits="userSpaceOnUse">
<stop stop-color="#EAEAEA"/>
<stop offset="1" stop-color="#A3A3A3"/>
</linearGradient>
<linearGradient id="paint7_linear_36:121" x1="-38374.3" y1="-12115.8" x2="-38486.5" y2="-11673.2" gradientUnits="userSpaceOnUse">
<stop stop-color="#EAEAEA"/>
<stop offset="1" stop-color="#A3A3A3"/>
</linearGradient>
<linearGradient id="paint8_linear_36:121" x1="-19919.6" y1="12096.6" x2="-19664.5" y2="12445.7" gradientUnits="userSpaceOnUse">
<stop offset="0.01"/>
<stop offset="0.08" stop-opacity="0.69"/>
<stop offset="0.21" stop-opacity="0.32"/>
<stop offset="1" stop-opacity="0"/>
</linearGradient>
<linearGradient id="paint9_linear_36:121" x1="4963.43" y1="764.976" x2="5265.03" y2="1467.44" gradientUnits="userSpaceOnUse">
<stop offset="0.01"/>
<stop offset="0.08" stop-opacity="0.69"/>
<stop offset="0.21" stop-opacity="0.32"/>
<stop offset="1" stop-opacity="0"/>
</linearGradient>
<linearGradient id="paint10_linear_36:121" x1="279.498" y1="57.8553" x2="331.945" y2="115.679" gradientUnits="userSpaceOnUse">
<stop offset="0.01" stop-color="white"/>
<stop offset="1" stop-color="white" stop-opacity="0"/>
</linearGradient>
<clipPath id="clip0_36:121">
<rect width="602" height="454" fill="white"/>
</clipPath>
</defs>
</svg>
