<svg width="462" height="482" viewBox="0 0 462 482" fill="none" xmlns="http://www.w3.org/2000/svg">
<g clip-path="url(#clip0_173:1129)">
<path d="M233.44 482C327.968 482 404.598 468.447 404.598 451.729C404.598 435.012 327.968 421.459 233.44 421.459C138.912 421.459 62.2812 435.012 62.2812 451.729C62.2812 468.447 138.912 482 233.44 482Z" fill="#3F3D56"/>
<path d="M90.7976 166.607C90.7976 122.508 155.467 86.758 235.24 86.758C315.014 86.758 379.683 122.508 379.683 166.607" stroke="#3F3D56" stroke-width="2" stroke-miterlimit="10"/>
<path d="M280.658 117.502H163.146C139.904 78.335 139.904 39.1675 163.146 0H280.658C248.16 39.1675 248.16 78.335 280.658 117.502Z" fill="#E6E6E6"/>
<path d="M246.15 13.9884H179.933V22.3814H246.15V13.9884Z" fill="#FAC033"/>
<path d="M246.151 41.4989H158.483V44.2966H246.151V41.4989Z" fill="white"/>
<path d="M246.151 55.9536H158.483V58.7512H246.151V55.9536Z" fill="white"/>
<path d="M246.151 70.4082H158.483V73.2059H246.151V70.4082Z" fill="white"/>
<path d="M327.575 377.601C327.575 414.867 350.955 445.021 379.848 445.021Z" fill="#3F3D56"/>
<path d="M379.848 445.021C379.848 407.337 405.939 376.844 438.183 376.844Z" fill="#FAC033"/>
<path d="M346.514 380.979C346.514 416.378 361.424 445.021 379.848 445.021Z" fill="#FAC033"/>
<path d="M379.848 445.021C379.848 396.869 410.006 357.906 447.274 357.906Z" fill="#3F3D56"/>
<path d="M368.851 445.497C368.851 445.497 376.265 445.268 378.499 443.678C380.733 442.087 389.902 440.187 390.456 442.739C391.011 445.29 401.597 455.428 393.228 455.495C384.858 455.563 373.781 454.191 371.551 452.833C369.321 451.475 368.851 445.497 368.851 445.497Z" fill="#A8A8A8"/>
<path opacity="0.2" d="M393.377 454.607C385.008 454.675 373.93 453.303 371.7 451.945C370.002 450.911 369.325 447.199 369.099 445.487C368.942 445.494 368.851 445.497 368.851 445.497C368.851 445.497 369.321 451.475 371.551 452.833C373.781 454.192 384.858 455.563 393.228 455.495C395.644 455.476 396.478 454.616 396.432 453.343C396.097 454.112 395.175 454.593 393.377 454.607Z" fill="black"/>
<path d="M208.318 91.7905C208.999 92.1026 209.818 91.6374 210.219 91.0054C211.746 88.5986 208.934 85.4953 209.543 82.7105C210.031 80.4795 212.566 79.1553 213.084 76.9311C213.588 74.77 212.036 72.3341 213.085 70.3786C213.907 68.8466 215.96 68.4435 217.678 68.7119C219.396 68.9803 221.026 69.7353 222.761 69.8411C225.074 69.9821 227.278 68.9642 229.539 68.4599C231.801 67.9555 234.559 68.153 235.889 70.0497C237.597 72.485 235.864 75.8761 236.459 78.7906C236.931 81.1049 238.869 83.0211 238.91 85.3827C238.925 86.2221 236.719 85.5459 236.836 86.3772C236.953 87.2085 235.91 86.4765 236.744 86.3778C237.084 86.2944 237.389 86.1048 237.615 85.8366C237.841 85.5683 237.975 85.2352 237.999 84.8855C238.098 84.1931 239.399 83.9623 239.384 83.2631C239.349 81.6242 242.312 82.7292 242.8 81.1643C243.922 77.5163 243.692 73.586 242.151 70.0939C241.487 68.603 240.582 67.1921 240.261 65.5917C239.826 63.4187 240.511 61.086 239.793 58.9894C238.825 56.164 235.624 54.7236 232.651 54.4311C229.679 54.1385 226.658 54.6622 223.703 54.2308C221.055 53.8444 218.492 52.697 215.822 52.8633C212.617 53.0627 209.829 55.1272 207.608 57.4451C205.387 59.7631 203.502 62.429 200.98 64.4148C200.207 64.9462 199.495 65.5596 198.855 66.2442C197.57 67.8098 197.439 70.0402 197.797 72.0337C198.154 74.0271 198.932 75.9287 199.26 77.9272C199.569 79.8053 199.474 81.7241 199.607 83.6227C199.74 85.5213 200.134 87.4776 201.277 88.999C201.735 89.6205 202.329 90.1294 203.013 90.4868C203.697 90.8443 204.454 91.0409 205.226 91.0618C205.761 91.0741 206.212 90.5937 206.752 90.7189C207.426 90.8755 207.72 91.5161 208.318 91.7905Z" fill="#2F2E41"/>
<path d="M185.449 229.769L187.43 241.942L191.394 236.563L189.129 228.353L185.449 229.769Z" fill="#A0616A"/>
<path d="M187.997 137.76L184.876 145.984C184.876 145.984 181.768 187.87 181.768 190.984C181.768 194.098 184.033 234.015 184.882 235.714C184.882 235.714 188.563 230.335 193.376 231.184C198.189 232.034 196.207 217.029 196.207 217.029L200.737 179.943L199.888 161.258L187.997 137.76Z" fill="#575A89"/>
<path opacity="0.1" d="M187.997 137.76L184.876 145.984C184.876 145.984 181.768 187.87 181.768 190.984C181.768 194.098 184.033 234.015 184.882 235.714C184.882 235.714 188.563 230.335 193.376 231.184C198.189 232.034 196.207 217.029 196.207 217.029L200.737 179.943L199.888 161.258L187.997 137.76Z" fill="black"/>
<path d="M207.249 92.4639C207.249 92.4639 216.592 116.245 211.213 120.774C205.834 125.304 241.224 113.13 241.224 113.13L240.375 110.016C240.375 110.016 228.767 105.487 234.429 92.4639C240.092 79.4412 207.249 92.4639 207.249 92.4639Z" fill="#A0616A"/>
<path opacity="0.1" d="M207.249 92.4639C207.249 92.4639 216.592 116.245 211.213 120.774C205.834 125.304 241.224 113.13 241.224 113.13L240.375 110.016C240.375 110.016 228.767 105.487 234.429 92.4639C240.092 79.4412 207.249 92.4639 207.249 92.4639Z" fill="black"/>
<path d="M192.527 410.105C192.527 410.105 188.563 408.973 186.298 411.804C184.033 414.635 175.539 421.713 175.539 421.713C175.539 421.713 159.118 420.014 156.853 428.224C154.588 436.434 182.617 436.434 189.412 434.452C196.207 432.471 197.623 434.452 197.623 434.452C197.623 434.452 218.574 436.151 218.574 432.754C218.574 429.356 216.592 417.749 216.592 417.749L192.527 410.105Z" fill="#575A89"/>
<path d="M259.061 429.073L255.381 440.397C255.381 440.397 244.339 455.685 250.568 458.799C256.796 461.913 278.88 465.027 278.88 456.817V441.247C278.88 441.247 276.615 430.206 274.35 429.073C272.085 427.941 259.061 429.073 259.061 429.073Z" fill="#575A89"/>
<path d="M196.536 225.626C196.536 225.626 184.599 235.997 184.882 237.413C185.166 238.828 190.828 329.704 190.828 329.704L193.942 388.59C193.942 388.59 189.979 402.462 191.961 405.576C193.942 408.69 189.129 409.539 189.129 409.539C189.129 409.539 209.514 427.941 218.008 420.014L225.936 317.248L247.736 391.987C247.736 391.987 251.417 431.621 255.664 431.621C259.911 431.621 277.181 432.471 276.898 430.206C276.615 427.941 277.748 410.672 275.766 400.48C273.784 390.288 260.477 309.604 260.477 309.604C260.477 309.604 259.333 240.435 262.311 233.969C265.29 227.504 260.76 220.71 260.76 220.71L240.941 213.066L217.159 215.897L196.536 225.626Z" fill="#2F2E41"/>
<path d="M220.556 102.089C231.502 102.089 240.375 93.2169 240.375 82.2722C240.375 71.3275 231.502 62.455 220.556 62.455C209.61 62.455 200.737 71.3275 200.737 82.2722C200.737 93.2169 209.61 102.089 220.556 102.089Z" fill="#A0616A"/>
<path d="M268.687 125.021C267.708 122.251 266.058 119.767 263.884 117.791C261.71 115.815 259.081 114.408 256.23 113.697C250.519 112.26 244.933 110.367 239.526 108.035C239.526 108.035 219.424 117.66 215.46 117.66C211.496 117.66 211.496 115.112 211.496 115.112C211.496 115.112 201.304 125.87 195.924 127.002C190.545 128.135 182.617 141.441 185.449 148.801C187.372 153.52 190.156 157.84 193.659 161.541C193.659 161.541 192.527 201.175 196.207 208.536C196.207 208.536 187.147 225.805 195.641 226.938C204.135 228.07 236.694 224.107 242.357 228.07C248.019 232.034 258.495 227.221 259.911 232.6C261.326 237.979 264.441 239.111 264.441 239.111C264.441 239.111 269.254 231.467 266.422 226.938C263.591 222.408 268.687 125.021 268.687 125.021Z" fill="#575A89"/>
<path d="M247.736 231.467L243.206 234.298C243.206 234.298 248.019 251.002 250.001 251.568C251.983 252.134 256.648 237.286 256.648 237.286L247.736 231.467Z" fill="#A0616A"/>
<path d="M204.921 89.8088C205.601 90.1208 206.42 89.6557 206.821 89.0237C208.349 86.6169 205.536 83.5135 206.145 80.7288C206.633 78.4977 209.169 77.1736 209.687 74.9494C210.191 72.7883 208.639 70.3524 209.688 68.3969C210.51 66.8649 212.563 66.4618 214.28 66.7301C215.998 66.9985 217.629 67.7536 219.364 67.8594C221.676 68.0004 223.881 66.9825 226.142 66.4782C228.403 65.9738 231.161 66.1713 232.491 68.0679C234.199 70.5033 232.467 73.8944 233.062 76.8089C233.534 79.1231 238.914 80.7475 239.402 79.1826C240.525 75.5345 240.294 71.6042 238.754 68.1121C238.089 66.6213 237.184 65.2104 236.864 63.6099C236.428 61.437 237.113 59.1043 236.395 57.0077C235.428 54.1822 232.226 52.7419 229.254 52.4494C226.281 52.1568 223.261 52.6805 220.305 52.2491C217.658 51.8627 215.095 50.7153 212.424 50.8816C209.22 51.081 206.432 53.1454 204.21 55.4634C201.989 57.7813 200.105 60.4473 197.582 62.4331C196.81 62.9645 196.097 63.5778 195.457 64.2625C194.172 65.8281 194.042 68.0584 194.399 70.0519C194.757 72.0454 195.534 73.947 195.863 75.9455C196.171 77.8236 196.076 79.7424 196.209 81.641C196.342 83.5396 196.736 85.4958 197.88 87.0173C198.338 87.6388 198.931 88.1477 199.616 88.5051C200.3 88.8626 201.057 89.0592 201.828 89.08C202.363 89.0924 202.815 88.612 203.354 88.7372C204.029 88.8938 204.322 89.5343 204.921 89.8088Z" fill="#2F2E41"/>
<path opacity="0.1" d="M257.504 129.975L266.706 125.021C266.706 125.021 289.073 178.244 283.693 192.965C278.314 207.687 257.646 237.979 257.646 237.979C257.646 237.979 241.224 234.582 242.923 231.184C244.622 227.787 255.664 205.988 256.513 203.157C257.362 200.326 263.025 181.924 260.477 179.943C257.929 177.961 252.974 131.957 252.974 131.957L257.504 129.975Z" fill="black"/>
<path d="M257.363 121.907L268.688 125.021C268.688 125.021 291.054 178.244 285.675 192.965C280.296 207.687 259.628 237.979 259.628 237.979C259.628 237.979 243.206 234.582 244.905 231.184C246.604 227.787 257.646 205.988 258.495 203.157C259.344 200.326 265.007 181.924 262.459 179.943C259.911 177.961 247.736 128.984 247.736 128.984L257.363 121.907Z" fill="#575A89"/>
<path d="M379.683 166.607C379.683 212.843 315.014 250.324 235.241 250.324C155.467 250.324 90.7979 212.843 90.7979 166.607" stroke="#3F3D56" stroke-width="2" stroke-miterlimit="10"/>
<path d="M353.41 251.512C321.123 268.924 278.995 279.46 232.911 279.46C188.726 279.46 148.177 269.774 116.453 253.629" stroke="#3F3D56" stroke-width="2" stroke-miterlimit="10"/>
<path d="M307.374 65.1432C368.819 81.2919 412.58 116.814 416.649 158.65" stroke="#3F3D56" stroke-width="2" stroke-miterlimit="10"/>
<path d="M57.73 131.457C68.0831 112.43 86.9964 95.6856 111.777 82.8216" stroke="#3F3D56" stroke-width="2" stroke-miterlimit="10"/>
<path d="M184.757 335.134H302.269C325.511 295.966 325.511 256.799 302.269 217.631H184.757C217.255 256.799 217.255 295.966 184.757 335.134Z" fill="#F2F2F2"/>
<path d="M289.856 240.013H223.639V248.406H289.856V240.013Z" fill="#FAC033"/>
<path d="M306.177 265.192H218.51V267.989H306.177V265.192Z" fill="white"/>
<path d="M306.177 279.646H218.51V282.444H306.177V279.646Z" fill="white"/>
<path d="M134.943 255.378H17.4316C-5.81053 216.211 -5.81053 177.043 17.4316 137.876H134.943C102.446 177.043 102.446 216.211 134.943 255.378Z" fill="#F2F2F2"/>
<path d="M96.7055 151.864H30.4885V160.257H96.7055V151.864Z" fill="#FAC033"/>
<path d="M103.7 175.178H16.0327V177.976H103.7V175.178Z" fill="white"/>
<path d="M103.7 189.633H16.0327V192.431H103.7V189.633Z" fill="white"/>
<path d="M103.7 204.087H16.0327V206.885H103.7V204.087Z" fill="white"/>
<path d="M103.7 218.542H16.0327V221.34H103.7V218.542Z" fill="white"/>
<path d="M327.057 201.253H444.569C467.811 162.085 467.811 122.918 444.569 83.7501H327.057C359.555 122.918 359.555 162.085 327.057 201.253Z" fill="#F2F2F2"/>
<path d="M430.757 95.4071H364.54V103.8H430.757V95.4071Z" fill="#FAC033"/>
<path d="M445.213 118.721H357.545V121.519H445.213V118.721Z" fill="white"/>
</g>
<defs>
<clipPath id="clip0_173:1129">
<rect width="462" height="482" fill="white"/>
</clipPath>
</defs>
</svg>
