<?xml version="1.0" standalone="no"?>
<!DOCTYPE svg PUBLIC "-//W3C//DTD SVG 20010904//EN"
 "http://www.w3.org/TR/2001/REC-SVG-20010904/DTD/svg10.dtd">
<svg version="1.0" xmlns="http://www.w3.org/2000/svg"
 width="689.000000pt" height="689.000000pt" viewBox="0 0 689.000000 689.000000"
 preserveAspectRatio="xMidYMid meet">
<metadata>
Created by potrace 1.14, written by Peter Selinger 2001-2017
</metadata>
<g transform="translate(0.000000,689.000000) scale(0.100000,-0.100000)"
fill="#000000" stroke="none">
<path d="M1435 4732 c-3 -3 -5 -52 -5 -109 0 -85 3 -105 16 -110 14 -5 99 -7
187 -4 l28 1 -3 113 -3 112 -107 1 c-59 1 -110 -1 -113 -4z"/>
<path d="M1268 4353 c-7 -31 -2 -662 5 -670 4 -4 67 -7 140 -7 l132 -1 3 -97
3 -98 -33 -1 c-18 0 -82 -1 -143 -2 l-110 -2 0 -173 c0 -96 4 -176 8 -179 4
-2 68 -5 142 -5 l135 0 2 -481 3 -482 908 0 c500 0 914 3 920 7 7 4 11 273 11
920 l0 913 -410 5 -409 5 -1 75 c-1 41 -2 81 -3 88 -2 18 -351 18 -352 0 -1
-7 -2 -47 -3 -88 l-1 -75 -122 -3 -123 -3 0 185 0 184 -349 2 c-327 1 -349 0
-353 -17z m1342 -818 c65 -21 128 -52 148 -71 7 -8 16 -14 20 -14 26 0 162
-159 162 -189 0 -10 5 -22 10 -27 20 -20 38 -138 34 -217 -8 -148 -78 -275
-197 -364 -135 -99 -205 -115 -497 -111 l-215 3 0 315 0 315 80 0 80 0 2 -195
c1 -107 2 -216 3 -242 l0 -48 153 0 c143 0 156 2 203 25 83 41 163 131 192
216 45 133 -2 306 -107 388 -86 68 -94 70 -356 71 -131 0 -241 3 -245 5 -6 4
-7 131 -1 155 0 3 108 5 238 4 201 0 247 -3 293 -19z"/>
<path d="M3460 3971 c0 -3 60 -69 134 -145 l134 -140 371 0 371 -1 23 -25 c12
-14 63 -77 113 -140 49 -63 140 -178 201 -256 l111 -141 -46 -60 c-26 -33 -61
-78 -79 -99 -54 -67 -284 -358 -302 -382 l-17 -24 -372 0 -372 1 -23 -24 c-12
-12 -73 -75 -136 -139 -63 -64 -111 -119 -108 -122 4 -5 1026 -9 1143 -5 20 1
45 29 136 148 52 67 227 293 299 386 34 42 64 77 67 77 4 0 41 -44 82 -96 67
-86 397 -503 406 -513 4 -5 355 -4 359 1 1 2 -140 185 -312 408 -173 223 -322
415 -330 427 -14 21 -13 25 18 65 19 24 36 45 39 48 3 3 50 62 104 132 53 70
102 133 109 140 7 7 25 31 42 53 16 22 35 47 42 55 34 42 110 140 128 164 11
16 25 33 30 40 30 33 125 159 125 166 0 4 -79 7 -175 6 -140 -1 -177 -4 -188
-16 -8 -8 -56 -69 -108 -135 -52 -66 -138 -174 -190 -240 -52 -66 -112 -143
-134 -172 -22 -29 -43 -51 -47 -50 -7 2 -56 63 -378 469 l-115 145 -577 -1
c-318 0 -578 -2 -578 -5z"/>
<path d="M780 3828 c0 -103 3 -138 13 -139 62 -3 247 -3 248 1 4 35 1 262 -5
267 -4 4 -63 7 -131 8 l-125 0 0 -137z"/>
<path d="M3645 3195 c-103 -104 -185 -197 -181 -204 2 -3 201 -6 443 -5 l438
0 108 134 c59 73 107 136 107 139 0 3 -190 6 -423 6 l-422 1 -70 -71z"/>
</g>
</svg>
