<svg width="224" height="228" viewBox="0 0 224 228" fill="none" xmlns="http://www.w3.org/2000/svg">
<g clip-path="url(#clip0_36:202)">
<path d="M94.4371 105.123L175.315 104.979C175.46 104.979 175.599 104.921 175.701 104.819C175.803 104.717 175.86 104.578 175.86 104.434C175.86 104.289 175.803 104.151 175.701 104.048C175.599 103.946 175.46 103.889 175.315 103.889L94.4371 104.033C94.2925 104.033 94.1538 104.091 94.0516 104.193C93.9494 104.295 93.892 104.433 93.892 104.578C93.892 104.723 93.9494 104.861 94.0516 104.963C94.1538 105.066 94.2925 105.123 94.4371 105.123Z" fill="#3F3D56"/>
<path d="M93.2288 112.752C97.4435 112.752 100.86 109.336 100.86 105.123C100.86 100.91 97.4435 97.4943 93.2288 97.4943C89.0141 97.4943 85.5974 100.91 85.5974 105.123C85.5974 109.336 89.0141 112.752 93.2288 112.752Z" fill="#3F3D56"/>
<path d="M171.69 105.084C161.344 105.084 151.23 102.017 142.628 96.2715C134.026 90.5256 127.321 82.3587 123.362 72.8035C119.402 63.2484 118.367 52.7342 120.385 42.5905C122.403 32.4468 127.385 23.1292 134.701 15.816C142.017 8.50286 151.338 3.52251 161.485 1.5048C171.632 -0.512903 182.15 0.522659 191.708 4.48053C201.267 8.4384 209.436 15.1408 215.184 23.7402C220.932 32.3396 224 42.4498 224 52.7922C223.984 66.6561 218.468 79.9477 208.661 89.751C198.855 99.5543 185.559 105.069 171.69 105.084ZM171.69 4.10638C162.057 4.10638 152.641 6.96175 144.632 12.3114C136.623 17.6611 130.381 25.2648 126.695 34.1609C123.008 43.0571 122.044 52.8462 123.923 62.2903C125.802 71.7345 130.441 80.4094 137.252 87.2183C144.063 94.0271 152.741 98.664 162.189 100.543C171.636 102.421 181.428 101.457 190.328 97.772C199.227 94.0871 206.833 87.8469 212.185 79.8406C217.536 71.8342 220.392 62.4213 220.392 52.7922C220.378 39.8844 215.242 27.5095 206.112 18.3823C196.981 9.25512 184.602 4.12103 171.69 4.10638Z" fill="#3F3D56"/>
<path d="M194.261 73.7446C192.346 73.7459 190.474 73.1795 188.882 72.1172C187.289 71.0549 186.047 69.5444 185.313 67.7766C184.579 66.0087 184.386 64.0631 184.759 62.1856C185.131 60.3081 186.052 58.5832 187.405 57.2289C188.758 55.8746 190.482 54.9518 192.36 54.5771C194.237 54.2024 196.184 54.3927 197.953 55.124C199.723 55.8552 201.235 57.0946 202.3 58.6853C203.365 60.276 203.934 62.1466 203.935 64.0606C203.936 66.6269 202.917 69.0884 201.103 70.9043C199.289 72.7201 196.828 73.7417 194.261 73.7446ZM171.69 73.7446C169.125 73.7417 166.666 72.7219 164.852 70.9089C163.039 69.0959 162.019 66.6378 162.016 64.0739V41.5104C162.016 38.9455 163.035 36.4857 164.849 34.672C166.663 32.8584 169.124 31.8395 171.69 31.8395C174.256 31.8395 176.716 32.8584 178.531 34.672C180.345 36.4857 181.364 38.9455 181.364 41.5104V64.0739C181.361 66.6379 180.341 69.096 178.527 70.909C176.714 72.722 174.255 73.7417 171.69 73.7446ZM149.125 73.7446C146.558 73.7416 144.098 72.7211 142.283 70.9068C140.468 69.0925 139.447 66.6327 139.444 64.0669V55.052C139.444 52.4854 140.464 50.0239 142.28 48.209C144.095 46.3941 146.558 45.3745 149.125 45.3745C151.693 45.3745 154.155 46.3941 155.971 48.209C157.786 50.0239 158.806 52.4854 158.806 55.052V64.0669C158.803 66.6327 157.782 69.0926 155.967 70.9069C154.152 72.7212 151.692 73.7417 149.125 73.7446Z" fill="#FAC033"/>
<path d="M14.0956 180.864V181.741C14.0968 183.195 14.6749 184.588 15.703 185.616C16.731 186.644 18.1249 187.221 19.5788 187.223H66.0763C67.5304 187.222 68.9247 186.644 69.9529 185.617C70.9811 184.589 71.559 183.195 71.5595 181.741V180.864C71.5622 179.582 71.1116 178.339 70.2872 177.356C70.0129 177.03 69.7024 176.736 69.3617 176.479H45.2444C44.9536 176.479 44.6747 176.364 44.4691 176.158C44.2635 175.953 44.1479 175.674 44.1478 175.383H19.5788C18.1252 175.385 16.7317 175.963 15.7038 176.991C14.6759 178.018 14.0976 179.411 14.0956 180.864Z" fill="#3F3D56"/>
<path d="M39.759 227.347H45.4615L45.4615 187.005H39.759L39.759 227.347Z" fill="#3F3D56"/>
<path d="M23.5288 227.147C23.5288 227.763 32.1701 227.385 42.8297 227.385C53.4892 227.385 62.1305 227.763 62.1305 227.147C62.1305 226.531 53.4892 221.647 42.8297 221.647C32.1701 221.647 23.5288 226.531 23.5288 227.147Z" fill="#3F3D56"/>
<path d="M23.0441 179.939L42.5028 183.044L65.1111 186.653L72.95 187.902C73.7025 188.021 74.4714 187.837 75.0881 187.389C75.7049 186.942 76.119 186.269 76.2399 185.517L76.5952 183.298L76.9242 181.233L77.196 179.531C77.2575 179.151 77.241 178.762 77.1475 178.388C77.054 178.014 76.8855 177.663 76.6522 177.356C76.3764 176.979 76.0097 176.677 75.5862 176.479H45.2444C44.9536 176.479 44.6747 176.364 44.4691 176.158C44.2634 175.953 44.1479 175.674 44.1478 175.383V174.519C44.1479 174.229 44.2634 173.95 44.4691 173.744C44.6747 173.539 44.9536 173.423 45.2444 173.423H57.1671L51.6707 172.546L34.7736 169.849L24.9084 168.275C24.154 168.155 23.3831 168.34 22.7647 168.788C22.1463 169.236 21.7309 169.911 21.6097 170.665L20.6533 176.646C20.5366 177.399 20.7224 178.168 21.1702 178.785C21.618 179.402 22.2916 179.817 23.0441 179.939Z" fill="#FAC033"/>
<path d="M65.1112 179.106V212.524C65.1123 213.286 65.4154 214.016 65.9539 214.554C66.4925 215.093 67.2227 215.396 67.9843 215.397H74.051C74.8127 215.396 75.5429 215.093 76.0815 214.554C76.6201 214.016 76.9232 213.286 76.9243 212.524V179.106C76.9253 178.472 76.7137 177.856 76.3233 177.356C76.0342 176.972 75.6502 176.67 75.2091 176.479H66.8219C66.3828 176.671 66.0005 176.974 65.7122 177.356C65.3224 177.856 65.1108 178.472 65.1112 179.106Z" fill="#FAC033"/>
<path d="M46.8279 122.543C46.8587 122.841 46.9356 123.133 47.056 123.407C47.2386 123.826 47.5201 124.195 47.8763 124.481L47.8896 124.49L65.1989 138.527L65.4532 138.729L69.0372 141.636L70.1205 142.513H88.8643L87.7852 141.636L72.9718 129.621L63.0451 121.57L55.3204 115.308C54.8683 114.94 54.314 114.719 53.7324 114.676C53.7301 114.674 53.727 114.672 53.7236 114.672C53.5511 114.66 53.3779 114.663 53.2059 114.681C52.9485 114.707 52.696 114.769 52.4559 114.865C52.2917 114.924 52.1355 115.004 51.9909 115.102C51.7182 115.268 51.4763 115.48 51.2759 115.729L47.5122 120.364L47.4552 120.438C47.2166 120.73 47.0383 121.067 46.9306 121.428C46.8229 121.789 46.788 122.168 46.8279 122.543Z" fill="#FAC033"/>
<path d="M47.8897 124.49C48.2158 125.306 48.6903 126.053 49.289 126.696L60.8125 139.07C61.0909 139.326 61.4172 139.524 61.7725 139.654C62.1277 139.783 62.5051 139.841 62.8829 139.825C63.2606 139.808 63.6314 139.717 63.9738 139.556C64.3163 139.396 64.6238 139.17 64.8786 138.891L65.199 138.527L65.3393 138.369L70.3181 132.787L72.4587 130.384C72.601 130.236 72.7247 130.071 72.8271 129.893C72.8798 129.805 72.928 129.713 72.9719 129.621C73.1514 129.211 73.2339 128.765 73.2131 128.318C73.1985 127.938 73.1075 127.565 72.9455 127.22C72.7835 126.876 72.5537 126.568 72.27 126.314L58.9085 116.106C57.4342 114.976 55.5781 114.463 53.7325 114.676C53.7302 114.674 53.7271 114.672 53.7237 114.672C53.3138 114.723 52.9088 114.809 52.5129 114.926C52.3375 114.975 52.1666 115.036 51.9909 115.102C50.8582 115.528 49.8538 116.238 49.0739 117.163C48.2255 118.159 47.6666 119.369 47.4578 120.661C47.249 121.953 47.3984 123.277 47.8897 124.49V124.49Z" fill="#2F2E41"/>
<path d="M42.418 104.485C54.5607 104.485 64.4043 94.645 64.4043 82.5065C64.4043 70.3679 54.5607 60.5277 42.418 60.5277C30.2753 60.5277 20.4316 70.3679 20.4316 82.5065C20.4316 94.645 30.2753 104.485 42.418 104.485Z" fill="#FAC033"/>
<path d="M36.5634 176.909L44.7179 178.207L44.9023 178.238L57.2987 180.215L65.1111 181.465L76.5952 183.298L76.9242 183.351L78.6304 183.623L86.4693 184.872C87.2218 184.991 87.9908 184.807 88.6075 184.359C89.2242 183.912 89.6384 183.239 89.7592 182.487L90.4435 178.207L90.7155 176.506C90.7155 176.497 90.7198 176.488 90.7198 176.479H45.2444C44.9536 176.479 44.6747 176.364 44.4691 176.158C44.2634 175.953 44.1479 175.674 44.1478 175.383V174.519C44.1479 174.229 44.2634 173.95 44.4691 173.744C44.6747 173.539 44.9536 173.423 45.2444 173.423H59.6147V168.63L58.7374 168.49L54.4035 167.797L38.4234 165.249C37.6702 165.13 36.9003 165.314 36.2826 165.761C35.665 166.208 35.2501 166.882 35.129 167.635L34.7737 169.849L34.1726 173.62C34.0549 174.373 34.2404 175.142 34.6885 175.758C35.1366 176.375 35.8108 176.789 36.5634 176.909Z" fill="#FAC033"/>
<path d="M12.4943 157.492C12.4943 175.409 14.3148 186.126 42.3888 183.057C42.4282 183.053 42.4633 183.048 42.5028 183.044C47.51 182.549 52.4622 181.603 57.2986 180.215C59.8121 179.482 62.2549 178.525 64.5979 177.356C65.1505 177.076 65.6813 176.782 66.2035 176.479H45.2444C44.9535 176.479 44.6747 176.364 44.469 176.158C44.2634 175.953 44.1478 175.674 44.1477 175.383V174.519C44.1478 174.228 44.2634 173.95 44.469 173.744C44.6747 173.539 44.9535 173.423 45.2444 173.423H59.6146V145.727C59.6159 144.875 59.955 144.058 60.5578 143.456C61.1605 142.853 61.9776 142.514 62.83 142.513H74.5203C74.4193 142.223 74.3186 141.93 74.2089 141.636C73.1122 138.602 71.8122 135.646 70.318 132.787C68.2709 128.816 65.8347 125.059 63.0451 121.57C61.1025 119.138 58.9218 116.907 56.5355 114.909C52.1356 111.278 47.3456 109.033 42.4852 109.033C24.5618 109.033 12.4943 139.575 12.4943 157.492Z" fill="#2F2E41"/>
<path d="M41.956 90.6525L41.9331 89.8311C43.4616 89.7886 44.8092 89.6928 45.8218 88.9533C46.1088 88.7317 46.3448 88.4509 46.5136 88.13C46.6824 87.8091 46.7801 87.4556 46.8001 87.0936C46.8179 86.8724 46.7844 86.6501 46.7022 86.4439C46.6201 86.2378 46.4915 86.0533 46.3265 85.9049C45.6543 85.3374 44.5727 85.5211 43.7844 85.8824L43.1046 86.194L44.4082 76.6704L45.2222 76.7819L44.1133 84.883C45.1845 84.5682 46.177 84.7038 46.8568 85.2777C47.1179 85.5055 47.3227 85.7905 47.4552 86.1105C47.5878 86.4306 47.6446 86.7769 47.6211 87.1225C47.5971 87.6089 47.467 88.0842 47.2399 88.515C47.0128 88.9458 46.6942 89.3218 46.3064 89.6166C45.0054 90.5671 43.3146 90.6144 41.956 90.6525Z" fill="#2F2E41"/>
<path d="M53.673 77.4806H49.2479V78.3019H53.673V77.4806Z" fill="#2F2E41"/>
<path d="M39.7053 77.4806H35.2803V78.3019H39.7053V77.4806Z" fill="#2F2E41"/>
<path d="M24.871 76.4675C26.5809 73.8945 29.5897 72.8037 32.5567 72.5384C35.8962 72.2398 39.1231 72.8835 42.3837 73.509C45.972 74.1973 49.7698 74.8413 53.3856 73.9711C54.9851 73.6012 56.4797 72.8731 57.7568 71.8418C59.0339 70.8104 60.0602 69.5027 60.7581 68.0172C62.082 65.119 62.3672 61.8534 61.5659 58.7697C60.7186 55.4899 58.6155 52.6041 56.0659 50.4244C50.8623 45.9756 43.8204 43.9763 37.0474 44.1646C30.3 44.3387 23.7784 46.631 18.4069 50.7167C13.0264 54.9498 9.24017 60.8811 7.66624 67.5425C6.02041 74.1492 6.55656 81.1108 9.19461 87.3878C10.6767 90.8249 12.8203 93.9235 14.4744 97.274C16.0144 100.394 17.2004 104.02 16.2422 107.5C15.4014 110.553 12.9328 113.266 9.83373 114.095C8.42374 114.465 6.93174 114.367 5.58215 113.816C4.23256 113.265 3.09835 112.291 2.35012 111.041C0.800901 108.599 0.763835 105.4 3.0899 103.428C3.67637 102.923 4.35954 102.542 5.09786 102.309C5.83618 102.076 6.61422 101.995 7.38467 102.072C8.15513 102.149 8.9019 102.382 9.57958 102.756C10.2573 103.13 10.8517 103.639 11.3267 104.25C12.2704 105.475 12.6928 107.023 12.5023 108.558C12.3877 109.333 13.5751 109.668 13.6907 108.885C13.9683 107.262 13.6605 105.593 12.8221 104.176C11.9838 102.759 10.6694 101.685 9.11303 101.147C7.55671 100.608 5.85958 100.639 4.32402 101.234C2.78847 101.83 1.51422 102.951 0.728315 104.398C-0.674435 107.034 0.0824327 110.214 1.86308 112.468C2.7818 113.668 4.02703 114.578 5.44978 115.09C6.87254 115.601 8.41258 115.692 9.88563 115.352C13.1269 114.603 15.7784 112.028 17.0254 109.002C18.4136 105.633 17.7776 101.873 16.4243 98.6038C14.9614 95.0698 12.7891 91.9004 11.0711 88.4949C9.51562 85.4174 8.52577 82.0855 8.14875 78.6581C7.39418 71.7756 8.95679 64.838 12.5894 58.9429C16.2919 53.1393 21.9433 48.8457 28.5283 46.8334C35.0213 44.7959 42.1825 44.8583 48.54 47.3624C54.8023 49.829 60.8493 55.2044 60.7767 62.4239C60.7457 65.5078 59.6005 68.6529 57.2375 70.7098C54.4135 73.168 50.4814 73.3782 46.9315 72.9945C43.359 72.6085 39.8898 71.5655 36.3019 71.2994C33.1812 71.068 29.8144 71.3086 27.028 72.8585C25.7304 73.5819 24.6256 74.6064 23.8068 75.8457C23.3667 76.508 24.4336 77.1256 24.871 76.4675V76.4675Z" fill="#2F2E41"/>
<path d="M28.3694 130.261C28.4044 130.34 28.4439 130.418 28.4876 130.493C28.5317 130.572 28.5801 130.648 28.6324 130.721L38.2477 144.556L38.9935 145.63L46.8367 156.909L54.4035 167.797L57.4653 172.208C57.5477 172.328 57.6402 172.441 57.7418 172.546C58.2152 173.044 58.8519 173.355 59.5358 173.423H59.6146V154.607L58.7373 153.344L48.8984 139.189L38.3313 123.986C37.896 123.361 37.2305 122.933 36.4806 122.798C35.7307 122.662 34.9575 122.829 34.3307 123.262L31.089 125.512L29.3474 126.722C28.7968 127.105 28.3976 127.669 28.219 128.315C28.0404 128.961 28.0936 129.65 28.3694 130.261Z" fill="#FAC033"/>
<path d="M26.8648 129.923L27.299 130.796L27.3034 130.8L27.4219 131.033L34.471 145.021C34.8683 145.672 35.5073 146.138 36.248 146.319C36.9887 146.5 37.7709 146.38 38.4234 145.986L38.8796 145.701L38.9935 145.631L48.0826 139.93C48.407 139.734 48.6893 139.475 48.9132 139.169C49.1371 138.863 49.2981 138.516 49.387 138.147C49.4759 137.779 49.4909 137.396 49.4311 137.022C49.3713 136.647 49.238 136.288 49.0388 135.966L39.0551 122.434C38.0764 121.107 36.6709 120.159 35.0748 119.747C33.4787 119.335 31.7893 119.484 30.2907 120.171C29.9525 120.323 29.6269 120.502 29.3168 120.706C27.8494 121.675 26.789 123.149 26.337 124.848C25.885 126.548 26.0728 128.353 26.8648 129.923Z" fill="#2F2E41"/>
<path d="M78.6305 176.479V209.494C78.6316 210.256 78.9347 210.986 79.4733 211.524C80.0119 212.063 80.7421 212.366 81.5038 212.367H87.5705C88.3321 212.366 89.0623 212.063 89.6008 211.524C90.1394 210.986 90.4425 210.256 90.4436 209.494V176.479H78.6305Z" fill="#FAC033"/>
<path d="M43.2705 174.519V175.383C43.2711 175.84 43.4295 176.282 43.7189 176.635C44.0083 176.988 44.4109 177.231 44.8585 177.321C44.9197 177.33 44.9812 177.343 45.0427 177.348C45.1085 177.352 45.1742 177.356 45.2444 177.356H112.868C113.953 177.356 114.995 176.925 115.763 176.158C116.531 175.391 116.963 174.35 116.965 173.265V145.727C116.963 144.642 116.531 143.601 115.763 142.834C114.995 142.067 113.953 141.636 112.868 141.636H62.8301C61.745 141.637 60.7047 142.068 59.9374 142.835C59.1702 143.602 58.7386 144.642 58.7374 145.727V172.546H45.2444C44.7209 172.546 44.2189 172.754 43.8487 173.124C43.4785 173.494 43.2705 173.996 43.2705 174.519Z" fill="white"/>
<path d="M43.2705 174.519V175.383C43.2711 175.84 43.4295 176.282 43.7189 176.635C44.0083 176.988 44.4109 177.231 44.8585 177.321C44.9197 177.33 44.9812 177.343 45.0427 177.348C45.1085 177.352 45.1742 177.356 45.2444 177.356H112.868C113.953 177.356 114.995 176.925 115.763 176.158C116.531 175.391 116.963 174.35 116.965 173.265V145.727C116.963 144.642 116.531 143.601 115.763 142.834C114.995 142.067 113.953 141.636 112.868 141.636H62.8301C61.745 141.637 60.7047 142.068 59.9374 142.835C59.1702 143.602 58.7386 144.642 58.7374 145.727V172.546H45.2444C44.7209 172.546 44.2189 172.754 43.8487 173.124C43.4785 173.494 43.2705 173.996 43.2705 174.519ZM44.1478 175.383V174.519C44.1479 174.228 44.2635 173.95 44.4691 173.744C44.6748 173.539 44.9536 173.423 45.2445 173.423H59.6147V145.727C59.616 144.875 59.9551 144.058 60.5579 143.456C61.1606 142.853 61.9777 142.514 62.8301 142.513H112.868C113.721 142.513 114.539 142.852 115.142 143.454C115.746 144.057 116.086 144.874 116.087 145.727V173.265C116.086 174.118 115.746 174.935 115.142 175.538C114.539 176.14 113.721 176.479 112.868 176.479H45.2444C44.9536 176.479 44.6748 176.364 44.4691 176.158C44.2635 175.953 44.1479 175.674 44.1478 175.383V175.383Z" fill="#3F3D56"/>
<path d="M87.8505 162.869C89.7135 162.869 91.2238 161.359 91.2238 159.496C91.2238 157.634 89.7135 156.124 87.8505 156.124C85.9875 156.124 84.4772 157.634 84.4772 159.496C84.4772 161.359 85.9875 162.869 87.8505 162.869Z" fill="#FAC033"/>
<path d="M59.6279 173.011H58.7506V176.957H59.6279V173.011Z" fill="#3F3D56"/>
</g>
<defs>
<clipPath id="clip0_36:202">
<rect width="224" height="227" fill="white" transform="translate(0 0.5)"/>
</clipPath>
</defs>
</svg>
