<svg width="304" height="230" viewBox="0 0 304 230" fill="none" xmlns="http://www.w3.org/2000/svg">
<g clip-path="url(#clip0_36:231)">
<path d="M175.186 11.6455C177.794 17.183 172.268 18.7515 165.939 21.7195C159.61 24.6875 154.873 27.9311 152.265 22.3936C149.658 16.8562 147.542 5.86527 156.496 1.66649C165.759 -2.67693 172.579 6.108 175.186 11.6455Z" fill="#2F2E41"/>
<path d="M162.273 22.5355C166.978 22.5355 170.793 18.7286 170.793 14.0325C170.793 9.33645 166.978 5.52954 162.273 5.52954C157.567 5.52954 153.752 9.33645 153.752 14.0325C153.752 18.7286 157.567 22.5355 162.273 22.5355Z" fill="#FFB8B8"/>
<path d="M204.486 51.7414C204.191 51.3571 203.896 50.9798 203.598 50.6128C203.213 50.135 202.826 49.6723 202.436 49.2245C198.02 44.1389 193.322 40.9366 188.15 40.5938H188.143L188.066 40.5869L177.759 50.6128L174.255 54.0194L174.332 54.2063L176.222 58.9042H209.35C207.857 56.4321 206.234 54.0411 204.486 51.7414Z" fill="#2F2E41"/>
<path d="M153.007 17.4558L156.057 16.0255L155.632 11.6346L157.672 15.2683L159.129 14.5847L158.882 12.0233L160.071 14.143L170.904 9.06339C169.887 6.90281 168.051 5.23403 165.8 4.42417C163.55 3.61431 161.069 3.72971 158.904 4.74498L157.334 5.48116C155.169 6.49644 153.497 8.32843 152.685 10.5741C151.874 12.8198 151.989 15.2952 153.007 17.4558Z" fill="#2F2E41"/>
<path d="M223.602 171.798H45.6857C44.168 171.797 42.713 171.194 41.6399 170.123C40.5668 169.053 39.9631 167.601 39.9614 166.086V59.4042C39.9627 58.2947 40.4049 57.231 41.1911 56.4464C41.9772 55.6618 43.0432 55.2205 44.155 55.2192H225.06C226.191 55.2205 227.275 55.6695 228.075 56.4676C228.875 57.2657 229.325 58.3478 229.326 59.4766V166.086C229.324 167.601 228.721 169.053 227.648 170.123C226.574 171.194 225.12 171.797 223.602 171.798Z" fill="#F2F2F2"/>
<path d="M51.2365 166.086H218.051C219.523 166.086 220.935 165.503 221.976 164.464C223.017 163.425 223.602 162.016 223.602 160.547V69.9998C223.602 68.5308 223.017 67.1219 221.976 66.0831C220.935 65.0443 219.523 64.4607 218.051 64.4607H51.2365C49.7643 64.4607 48.3524 65.0443 47.3115 66.0831C46.2705 67.1219 45.6857 68.5308 45.6857 69.9998V160.547C45.6857 162.016 46.2705 163.425 47.3115 164.464C48.3524 165.503 49.7643 166.086 51.2365 166.086Z" fill="white"/>
<path d="M229.246 59.0775H39.881V56.1693C39.8832 54.6498 40.4893 53.1932 41.5663 52.1191C42.6434 51.045 44.1034 50.4411 45.6261 50.4398H223.501C225.024 50.4411 226.484 51.045 227.561 52.1191C228.638 53.1932 229.244 54.6498 229.246 56.1693V59.0775Z" fill="#FAC033"/>
<path d="M50.3218 56.2501C51.1425 56.2501 51.8079 55.5862 51.8079 54.7672C51.8079 53.9482 51.1425 53.2843 50.3218 53.2843C49.5011 53.2843 48.8358 53.9482 48.8358 54.7672C48.8358 55.5862 49.5011 56.2501 50.3218 56.2501Z" fill="white"/>
<path d="M55.9625 56.2501C56.7832 56.2501 57.4485 55.5862 57.4485 54.7672C57.4485 53.9482 56.7832 53.2843 55.9625 53.2843C55.1418 53.2843 54.4764 53.9482 54.4764 54.7672C54.4764 55.5862 55.1418 56.2501 55.9625 56.2501Z" fill="white"/>
<path d="M61.603 56.2501C62.4237 56.2501 63.089 55.5862 63.089 54.7672C63.089 53.9482 62.4237 53.2843 61.603 53.2843C60.7823 53.2843 60.1169 53.9482 60.1169 54.7672C60.1169 55.5862 60.7823 56.2501 61.603 56.2501Z" fill="white"/>
<path d="M139.849 146.449H124.931C124.057 146.448 123.22 146.102 122.602 145.485C121.984 144.869 121.636 144.033 121.635 143.161V128.274C121.636 127.402 121.984 126.566 122.602 125.95C123.22 125.333 124.057 124.986 124.931 124.985H139.849C140.723 124.986 141.56 125.333 142.178 125.95C142.796 126.566 143.144 127.402 143.145 128.274V143.161C143.144 144.033 142.796 144.869 142.178 145.485C141.56 146.102 140.723 146.448 139.849 146.449ZM124.931 125.678C124.241 125.678 123.58 125.952 123.092 126.439C122.604 126.926 122.33 127.586 122.329 128.274V143.161C122.33 143.849 122.604 144.509 123.092 144.996C123.58 145.483 124.241 145.756 124.931 145.757H139.849C140.539 145.756 141.2 145.483 141.688 144.996C142.176 144.509 142.45 143.849 142.451 143.161V128.274C142.45 127.586 142.176 126.926 141.688 126.439C141.2 125.952 140.539 125.678 139.849 125.678H124.931Z" fill="#CCCCCC"/>
<path d="M136.9 142.295H127.88C127.604 142.295 127.339 142.185 127.144 141.991C126.949 141.796 126.839 141.532 126.839 141.257V130.178C126.839 129.903 126.949 129.639 127.144 129.444C127.339 129.249 127.604 129.14 127.88 129.14H134.416C134.653 129.14 134.883 129.221 135.068 129.369L137.552 131.361C137.673 131.458 137.772 131.581 137.839 131.721C137.906 131.861 137.941 132.015 137.941 132.17V141.257C137.94 141.532 137.831 141.796 137.636 141.991C137.44 142.185 137.176 142.295 136.9 142.295ZM127.88 129.832C127.788 129.832 127.7 129.869 127.635 129.934C127.57 129.998 127.533 130.086 127.533 130.178V141.257C127.533 141.348 127.57 141.436 127.635 141.501C127.7 141.566 127.788 141.603 127.88 141.603H136.9C136.992 141.603 137.08 141.566 137.145 141.501C137.21 141.436 137.247 141.348 137.247 141.257V132.17C137.247 132.118 137.235 132.067 137.213 132.021C137.191 131.974 137.158 131.933 137.117 131.9L134.633 129.908C134.571 129.859 134.495 129.832 134.416 129.832H127.88Z" fill="#CCCCCC"/>
<path d="M135.165 133.986H129.615C129.522 133.986 129.434 133.95 129.369 133.885C129.304 133.82 129.268 133.732 129.268 133.64C129.268 133.548 129.304 133.46 129.369 133.395C129.434 133.33 129.522 133.294 129.615 133.294H135.165C135.257 133.294 135.346 133.33 135.411 133.395C135.476 133.46 135.512 133.548 135.512 133.64C135.512 133.732 135.476 133.82 135.411 133.885C135.346 133.95 135.257 133.986 135.165 133.986Z" fill="#CCCCCC"/>
<path d="M135.165 136.064H129.615C129.522 136.064 129.434 136.027 129.369 135.962C129.304 135.897 129.268 135.809 129.268 135.717C129.268 135.626 129.304 135.538 129.369 135.473C129.434 135.408 129.522 135.371 129.615 135.371H135.165C135.257 135.371 135.346 135.408 135.411 135.473C135.476 135.538 135.512 135.626 135.512 135.717C135.512 135.809 135.476 135.897 135.411 135.962C135.346 136.027 135.257 136.064 135.165 136.064Z" fill="#CCCCCC"/>
<path d="M135.165 138.141H129.615C129.522 138.141 129.434 138.104 129.369 138.039C129.304 137.974 129.268 137.886 129.268 137.795C129.268 137.703 129.304 137.615 129.369 137.55C129.434 137.485 129.522 137.448 129.615 137.448H135.165C135.257 137.448 135.346 137.485 135.411 137.55C135.476 137.615 135.512 137.703 135.512 137.795C135.512 137.886 135.476 137.974 135.411 138.039C135.346 138.104 135.257 138.141 135.165 138.141Z" fill="#CCCCCC"/>
<path d="M175.235 146.449H160.317C159.444 146.448 158.606 146.102 157.988 145.485C157.37 144.869 157.023 144.033 157.022 143.161V128.274C157.023 127.402 157.37 126.566 157.988 125.95C158.606 125.333 159.444 124.986 160.317 124.985H175.235C176.109 124.986 176.947 125.333 177.564 125.95C178.182 126.566 178.53 127.402 178.531 128.274V143.161C178.53 144.033 178.182 144.869 177.564 145.485C176.947 146.102 176.109 146.448 175.235 146.449ZM160.317 125.678C159.628 125.678 158.966 125.952 158.478 126.439C157.991 126.926 157.716 127.586 157.715 128.274V143.161C157.716 143.849 157.991 144.509 158.478 144.996C158.966 145.483 159.628 145.756 160.317 145.757H175.235C175.925 145.756 176.586 145.483 177.074 144.996C177.562 144.509 177.836 143.849 177.837 143.161V128.274C177.836 127.586 177.562 126.926 177.074 126.439C176.586 125.952 175.925 125.678 175.235 125.678H160.317Z" fill="#CCCCCC"/>
<path d="M172.633 139.526H162.919C162.643 139.525 162.379 139.416 162.184 139.221C161.988 139.026 161.879 138.762 161.878 138.487V132.948C161.879 132.672 161.988 132.408 162.184 132.214C162.379 132.019 162.643 131.909 162.919 131.909H172.633C172.909 131.909 173.174 132.019 173.369 132.214C173.564 132.408 173.674 132.672 173.674 132.948V138.487C173.674 138.762 173.564 139.026 173.369 139.221C173.174 139.416 172.909 139.525 172.633 139.526ZM162.919 132.602C162.827 132.602 162.739 132.638 162.674 132.703C162.609 132.768 162.572 132.856 162.572 132.948V138.487C162.572 138.579 162.609 138.667 162.674 138.732C162.739 138.797 162.827 138.833 162.919 138.833H172.633C172.725 138.833 172.813 138.797 172.878 138.732C172.943 138.667 172.98 138.579 172.98 138.487V132.948C172.98 132.856 172.943 132.768 172.878 132.703C172.813 132.638 172.725 132.602 172.633 132.602H162.919Z" fill="#CCCCCC"/>
<path d="M167.776 136.631C167.581 136.631 167.39 136.577 167.225 136.474L162.041 133.241C161.964 133.193 161.908 133.115 161.888 133.026C161.867 132.936 161.883 132.842 161.932 132.765C161.98 132.687 162.058 132.631 162.148 132.611C162.237 132.59 162.331 132.606 162.409 132.654L167.593 135.887C167.648 135.921 167.711 135.939 167.776 135.939C167.841 135.939 167.905 135.921 167.96 135.887L173.143 132.654C173.221 132.606 173.315 132.59 173.405 132.611C173.494 132.631 173.572 132.687 173.621 132.765C173.669 132.842 173.685 132.936 173.665 133.026C173.644 133.115 173.589 133.193 173.511 133.241L168.328 136.474C168.162 136.577 167.971 136.631 167.776 136.631Z" fill="#CCCCCC"/>
<path d="M104.462 146.449H89.5447C88.6709 146.448 87.8332 146.102 87.2153 145.485C86.5975 144.869 86.2499 144.033 86.2489 143.161V128.274C86.2499 127.402 86.5975 126.566 87.2153 125.95C87.8332 125.333 88.6709 124.986 89.5447 124.985H104.462C105.336 124.986 106.174 125.333 106.792 125.95C107.41 126.566 107.757 127.402 107.758 128.274V143.161C107.757 144.033 107.41 144.869 106.792 145.485C106.174 146.102 105.336 146.448 104.462 146.449ZM89.5447 125.678C88.8548 125.678 88.1935 125.952 87.7057 126.439C87.2179 126.926 86.9435 127.586 86.9428 128.274V143.161C86.9435 143.849 87.2179 144.509 87.7057 144.996C88.1935 145.483 88.8548 145.756 89.5447 145.757H104.462C105.152 145.756 105.814 145.483 106.301 144.996C106.789 144.509 107.064 143.849 107.064 143.161V128.274C107.064 127.586 106.789 126.926 106.301 126.439C105.814 125.952 105.152 125.678 104.462 125.678H89.5447Z" fill="#CCCCCC"/>
<path d="M101.86 139.526H92.1466C91.8707 139.525 91.6061 139.416 91.411 139.221C91.2159 139.026 91.1061 138.762 91.1058 138.487V132.948C91.1061 132.672 91.2159 132.408 91.411 132.214C91.6061 132.019 91.8707 131.909 92.1466 131.909H101.86C102.136 131.909 102.401 132.019 102.596 132.214C102.791 132.408 102.901 132.672 102.901 132.948V138.487C102.901 138.762 102.791 139.026 102.596 139.221C102.401 139.416 102.136 139.525 101.86 139.526ZM92.1466 132.602C92.0546 132.602 91.9664 132.638 91.9014 132.703C91.8364 132.768 91.7998 132.856 91.7997 132.948V138.487C91.7998 138.579 91.8364 138.667 91.9014 138.732C91.9664 138.797 92.0546 138.833 92.1466 138.833H101.86C101.952 138.833 102.041 138.797 102.106 138.732C102.171 138.667 102.207 138.579 102.207 138.487V132.948C102.207 132.856 102.171 132.768 102.106 132.703C102.041 132.638 101.952 132.602 101.86 132.602H92.1466Z" fill="#CCCCCC"/>
<path d="M100.321 139.526H93.3394C93.2176 139.526 93.0979 139.494 92.9924 139.433C92.8869 139.372 92.7993 139.285 92.7384 139.179C92.6775 139.074 92.6455 138.955 92.6455 138.833C92.6455 138.712 92.6776 138.592 92.7386 138.487L94.8415 134.852C94.9024 134.747 94.99 134.659 95.0954 134.598C95.2009 134.538 95.3206 134.506 95.4424 134.506C95.5642 134.506 95.6839 134.538 95.7893 134.598C95.8948 134.659 95.9824 134.747 96.0433 134.852L97.4015 137.2L98.1884 135.839C98.2493 135.734 98.3369 135.647 98.4424 135.586C98.5479 135.525 98.6675 135.493 98.7893 135.493C98.9111 135.493 99.0308 135.525 99.1363 135.586C99.2417 135.647 99.3293 135.734 99.3903 135.839L100.922 138.487C100.983 138.592 101.015 138.712 101.015 138.833C101.015 138.955 100.983 139.074 100.922 139.179C100.861 139.285 100.773 139.372 100.668 139.433C100.562 139.494 100.443 139.526 100.321 139.526H100.321ZM100.321 138.833L98.7893 136.186L97.7021 138.065C97.6716 138.118 97.6278 138.161 97.5751 138.192C97.5223 138.222 97.4625 138.238 97.4016 138.238C97.3407 138.238 97.2808 138.222 97.2281 138.192C97.1753 138.161 97.1315 138.118 97.1011 138.065L95.4425 135.198L93.3394 138.833H100.321Z" fill="#CCCCCC"/>
<path d="M100.82 134.679C101.203 134.679 101.514 134.369 101.514 133.986C101.514 133.604 101.203 133.294 100.82 133.294C100.437 133.294 100.126 133.604 100.126 133.986C100.126 134.369 100.437 134.679 100.82 134.679Z" fill="#CCCCCC"/>
<path d="M266.724 224.888L262.471 224.887L260.448 208.516L266.725 208.517L266.724 224.888Z" fill="#FFB8B8"/>
<path d="M267.809 229.002L254.095 229.001V228.828C254.095 228.129 254.233 227.436 254.501 226.79C254.769 226.144 255.162 225.556 255.658 225.062C256.154 224.567 256.742 224.175 257.39 223.907C258.038 223.639 258.732 223.502 259.433 223.502H259.433L267.809 223.502L267.809 229.002Z" fill="#2F2E41"/>
<path d="M284.07 224.888L279.817 224.887L277.794 208.516L284.071 208.517L284.07 224.888Z" fill="#FFB8B8"/>
<path d="M285.155 229.002L271.441 229.001V228.828C271.441 228.129 271.579 227.436 271.847 226.79C272.115 226.144 272.509 225.556 273.004 225.062C273.5 224.567 274.088 224.175 274.736 223.907C275.384 223.639 276.078 223.502 276.779 223.502H276.779L285.155 223.502L285.155 229.002Z" fill="#2F2E41"/>
<path d="M282.795 217.791L278.856 216.595C278.563 216.506 278.302 216.333 278.106 216.097C277.911 215.861 277.79 215.572 277.758 215.268L274.085 180.535C274.083 180.493 274.064 180.454 274.033 180.425C274.002 180.397 273.962 180.381 273.919 180.38C273.877 180.376 273.835 180.389 273.802 180.415C273.769 180.442 273.748 180.48 273.742 180.522L267.591 214.172C267.554 214.376 267.476 214.571 267.362 214.745C267.248 214.919 267.101 215.068 266.928 215.184C266.756 215.3 266.562 215.381 266.358 215.421C266.154 215.461 265.944 215.46 265.74 215.418L260.706 214.384C260.337 214.306 260.008 214.099 259.779 213.799C259.551 213.5 259.439 213.128 259.463 212.752L263.205 157.599L288.578 154.867L284.808 216.395C284.784 216.791 284.609 217.162 284.32 217.434C284.031 217.706 283.649 217.858 283.252 217.859C283.097 217.859 282.943 217.836 282.795 217.791Z" fill="#2F2E41"/>
<path d="M282.771 109.569C287.477 109.569 291.292 105.762 291.292 101.066C291.292 96.3697 287.477 92.5627 282.771 92.5627C278.065 92.5627 274.25 96.3697 274.25 101.066C274.25 105.762 278.065 109.569 282.771 109.569Z" fill="#FFB8B8"/>
<path d="M263.166 157.923L268.667 123.354C268.96 121.516 269.641 119.762 270.666 118.207C271.691 116.652 273.036 115.333 274.612 114.338C276.188 113.342 277.958 112.693 279.804 112.433C281.651 112.173 283.532 112.308 285.322 112.83C288.451 113.734 291.131 115.769 292.838 118.538C294.544 121.308 295.155 124.613 294.55 127.808L288.794 158.679L263.166 157.923Z" fill="#FAC033"/>
<path d="M285.124 164.108C285.549 163.827 285.908 163.457 286.175 163.023C286.442 162.59 286.61 162.103 286.668 161.597C286.725 161.091 286.671 160.579 286.509 160.097C286.347 159.614 286.081 159.173 285.73 158.804L291.418 147.812L285.012 148.494L280.592 158.828C280.011 159.458 279.681 160.279 279.665 161.136C279.65 161.993 279.949 162.825 280.508 163.476C281.066 164.127 281.845 164.551 282.696 164.667C283.546 164.784 284.41 164.584 285.124 164.108V164.108Z" fill="#FFB8B8"/>
<path d="M286.342 156.865C286.027 156.821 285.733 156.682 285.5 156.467L283.323 154.46C283.088 154.242 282.926 153.958 282.858 153.645C282.79 153.332 282.821 153.006 282.945 152.71L287.294 142.422L286.677 122.093C286.766 121.44 286.983 120.81 287.315 120.24C287.648 119.671 288.09 119.172 288.616 118.773C289.142 118.373 289.742 118.081 290.381 117.914C291.02 117.746 291.686 117.705 292.341 117.794C292.995 117.883 293.626 118.101 294.197 118.433C294.767 118.766 295.267 119.207 295.666 119.732C296.066 120.258 296.358 120.856 296.526 121.494C296.693 122.132 296.733 122.797 296.643 123.45L297.698 136.229C298.019 140.107 296.917 143.97 294.597 147.098L287.814 156.249C287.684 156.425 287.518 156.571 287.327 156.679C287.136 156.787 286.924 156.853 286.706 156.874C286.585 156.885 286.462 156.882 286.342 156.865Z" fill="#FAC033"/>
<path d="M233.702 96.433C233.795 96.9335 233.997 97.4075 234.293 97.8218C234.59 98.236 234.973 98.5804 235.417 98.8306C235.861 99.0809 236.355 99.2309 236.864 99.2702C237.372 99.3095 237.883 99.237 238.36 99.0579L246.286 108.571L248.154 102.418L240.341 94.3279C239.987 93.5475 239.358 92.9241 238.573 92.5757C237.789 92.2274 236.903 92.1783 236.085 92.4378C235.267 92.6973 234.572 93.2473 234.133 93.9837C233.694 94.72 233.541 95.5915 233.702 96.433Z" fill="#FFB8B8"/>
<path d="M239.911 100.376C240.075 100.104 240.317 99.8886 240.607 99.7579L243.307 98.5404C243.6 98.4093 243.926 98.371 244.241 98.4308C244.556 98.4906 244.846 98.6455 245.07 98.8746L252.868 106.883L271.868 114.242C272.436 114.578 272.933 115.023 273.329 115.551C273.725 116.079 274.013 116.679 274.177 117.318C274.34 117.957 274.376 118.622 274.282 119.275C274.187 119.928 273.965 120.556 273.627 121.123C273.29 121.69 272.844 122.185 272.314 122.58C271.785 122.974 271.182 123.261 270.542 123.424C269.901 123.586 269.235 123.621 268.581 123.526C267.927 123.431 267.298 123.209 266.73 122.871L254.526 118.858C250.822 117.641 247.687 115.122 245.705 111.771L239.905 101.97C239.794 101.781 239.723 101.572 239.699 101.354C239.674 101.137 239.695 100.916 239.761 100.708C239.798 100.592 239.848 100.48 239.911 100.376Z" fill="#FAC033"/>
<path opacity="0.1" d="M289.683 130.55L289.336 141.628L282.945 152.71L288.281 140.36L289.683 130.55Z" fill="white"/>
<path d="M281.795 102.664C281.26 102.733 280.718 102.606 280.269 102.307C279.82 102.008 279.496 101.556 279.356 101.036C279.221 100.437 278.925 99.8866 278.5 99.443C278.075 98.9994 277.538 98.6795 276.944 98.5177C275.381 98.1613 273.471 98.8955 272.326 97.7137C272.081 97.4439 271.903 97.1198 271.808 96.7682C271.713 96.4165 271.703 96.0473 271.779 95.6911C271.99 94.5427 272.813 93.6751 273.709 92.9812C275.594 91.5278 277.876 90.677 280.254 90.5403C281.485 90.5048 282.717 90.5659 283.939 90.7232C285.218 90.8038 286.483 91.0345 287.708 91.4106C289.103 91.9361 290.343 92.8041 291.314 93.9344C292.284 95.0648 292.953 96.421 293.259 97.8776C293.539 99.3388 293.496 100.843 293.133 102.286C292.77 103.729 292.096 105.075 291.158 106.231C290.035 107.627 288.586 108.728 286.939 109.437C286.547 109.622 286.097 109.644 285.688 109.5C284.662 109.093 284.83 107.825 285.297 106.979C285.798 106.074 286.568 105.197 286.166 104.096C285.964 103.585 285.577 103.169 285.081 102.93C284.061 102.411 282.92 102.534 281.824 102.66L281.795 102.664Z" fill="#2F2E41"/>
<path d="M230.855 107.465H125.39C123.872 107.464 122.417 106.861 121.344 105.79C120.271 104.72 119.667 103.268 119.666 101.753V79.2503C119.667 77.7359 120.271 76.2839 121.344 75.2131C122.417 74.1422 123.872 73.5398 125.39 73.5381H230.855C232.373 73.5398 233.828 74.1422 234.901 75.2131C235.974 76.284 236.578 77.7359 236.579 79.2503V101.753C236.578 103.268 235.974 104.72 234.901 105.79C233.828 106.861 232.373 107.464 230.855 107.465Z" fill="white"/>
<path d="M230.855 107.639H125.39C123.826 107.637 122.327 107.016 121.222 105.913C120.116 104.809 119.494 103.314 119.492 101.753V79.2503C119.494 77.69 120.116 76.1941 121.222 75.0907C122.327 73.9874 123.826 73.3667 125.39 73.365H230.855C232.419 73.3667 233.918 73.9874 235.023 75.0907C236.129 76.1941 236.751 77.69 236.753 79.2503V101.753C236.751 103.314 236.129 104.809 235.023 105.913C233.918 107.016 232.419 107.637 230.855 107.639ZM125.39 74.0574C124.01 74.0589 122.688 74.6066 121.712 75.5801C120.736 76.5536 120.188 77.8736 120.186 79.2503V101.753C120.188 103.13 120.736 104.45 121.712 105.423C122.688 106.397 124.01 106.945 125.39 106.946H230.855C232.235 106.945 233.557 106.397 234.533 105.423C235.508 104.45 236.057 103.13 236.059 101.753V79.2503C236.057 77.8736 235.508 76.5536 234.533 75.5801C233.557 74.6066 232.235 74.0589 230.855 74.0574H125.39Z" fill="#3F3D56"/>
<path d="M218.019 101.926H138.226C136.709 101.925 135.254 101.322 134.18 100.251C133.107 99.1804 132.504 97.7285 132.502 96.214V84.4433C132.504 82.9289 133.107 81.4769 134.18 80.406C135.254 79.3352 136.709 78.7328 138.226 78.7311H218.019C219.536 78.7328 220.991 79.3352 222.065 80.406C223.138 81.4769 223.741 82.9289 223.743 84.4433V96.214C223.741 97.7285 223.138 99.1804 222.065 100.251C220.991 101.322 219.536 101.925 218.019 101.926Z" fill="#F2F2F2"/>
<path d="M155.397 95.582C159.178 95.582 162.243 92.5235 162.243 88.7507C162.243 84.9779 159.178 81.9194 155.397 81.9194C151.616 81.9194 148.552 84.9779 148.552 88.7507C148.552 92.5235 151.616 95.582 155.397 95.582Z" fill="#FF6584"/>
<path d="M213.06 101.237L203.397 93.1499L193.902 85.2025C193.651 84.9928 193.334 84.8781 193.007 84.8787C192.68 84.8794 192.364 84.9953 192.114 85.2059L182.649 93.1898L180.337 95.1401L176.851 92.2225L166.257 83.3561C166.006 83.1464 165.689 83.0317 165.362 83.0324C165.035 83.033 164.719 83.1489 164.469 83.3595L153.91 92.2666L143.184 101.314C143.129 101.36 143.09 101.421 143.072 101.49C143.054 101.558 143.057 101.631 143.082 101.698C143.106 101.764 143.151 101.822 143.209 101.862C143.268 101.903 143.337 101.925 143.408 101.925L165.399 101.882L172.359 101.869L172.291 101.926L193.04 101.886L212.838 101.848C212.909 101.848 212.978 101.826 213.037 101.786C213.095 101.745 213.139 101.687 213.163 101.62C213.188 101.554 213.191 101.481 213.172 101.412C213.154 101.344 213.115 101.283 213.06 101.237Z" fill="#3F3D56"/>
<path d="M303.653 229.5H237.044C236.952 229.5 236.863 229.464 236.798 229.399C236.733 229.334 236.697 229.246 236.697 229.154C236.697 229.062 236.733 228.974 236.798 228.909C236.863 228.844 236.952 228.808 237.044 228.808H303.653C303.745 228.808 303.833 228.844 303.898 228.909C303.963 228.974 304 229.062 304 229.154C304 229.246 303.963 229.334 303.898 229.399C303.833 229.464 303.745 229.5 303.653 229.5Z" fill="#CCCCCC"/>
<path d="M209.562 46.1676C209.285 45.7183 208.919 45.33 208.486 45.0265C208.054 44.7229 207.564 44.5104 207.047 44.402C206.857 44.3622 206.664 44.3379 206.471 44.3293L180.039 20.7464C179.519 20.2138 178.827 19.8836 178.085 19.8151C177.939 19.7983 177.792 19.7937 177.645 19.8012C177.035 19.8289 176.446 20.0333 175.951 20.3894C175.456 20.7455 175.075 21.2379 174.856 21.8065C174.636 22.375 174.588 22.995 174.716 23.5906C174.844 24.1863 175.143 24.7317 175.577 25.1604L185.697 33.9642L202.314 48.4179C202.328 48.6901 202.369 48.9603 202.436 49.2245C202.635 49.99 203.062 50.6769 203.661 51.1944C204.26 51.7119 205.003 52.0355 205.791 52.1222C206.509 52.2059 207.236 52.086 207.89 51.776C208.407 51.5343 208.867 51.1835 209.236 50.7478C209.274 50.7028 209.308 50.6613 209.343 50.6128C209.828 49.9819 210.109 49.2185 210.148 48.4243C210.187 47.63 209.983 46.8428 209.562 46.1676H209.562Z" fill="#FFB8B8"/>
<path d="M164.351 68.8956L164.104 58.9043L163.896 50.6129L163.754 44.8106L163.473 33.5004C163.417 32.8948 163.186 32.3185 162.808 31.8418C162.43 31.3651 161.92 31.0086 161.342 30.8159C160.764 30.6231 160.143 30.6025 159.553 30.7564C158.964 30.9104 158.432 31.2323 158.023 31.6828C157.926 31.7858 157.839 31.897 157.762 32.0152C157.335 32.6256 157.143 33.3693 157.221 34.1097L157.839 50.6129L158.148 58.9043L158.543 69.4806C158.429 69.6361 158.326 69.7992 158.234 69.9688C157.988 70.4356 157.839 70.9476 157.796 71.4737C157.754 71.9998 157.819 72.529 157.988 73.0292C158.164 73.5537 158.45 74.035 158.826 74.4413C159.202 74.8477 159.66 75.1699 160.17 75.3868C160.68 75.6037 161.231 75.7102 161.785 75.6995C162.339 75.6887 162.885 75.5609 163.386 75.3245C163.968 75.0498 164.474 74.6363 164.858 74.1204C165.242 73.6046 165.492 73.0024 165.588 72.3669C165.683 71.7314 165.62 71.0823 165.404 70.4768C165.188 69.8714 164.827 69.3283 164.351 68.8956H164.351Z" fill="#FFB8B8"/>
<path d="M188.15 40.5939L185.697 33.9642L181.728 23.2251C181.442 22.4438 180.983 21.7368 180.385 21.1567C179.788 20.5765 179.067 20.1381 178.276 19.874C178.214 19.8532 178.148 19.8324 178.085 19.8151C177.32 19.5831 176.512 19.5193 175.72 19.6281C174.927 19.7369 174.167 20.0156 173.492 20.4452L160.125 28.9062C158.901 29.6793 158.026 30.897 157.685 32.3021C157.343 33.7071 157.563 35.1895 158.297 36.436C159.968 39.3204 161.79 42.1158 163.754 44.8105C165.312 46.9258 168.212 47.1508 168.715 50.6128H178.571L188.549 41.674L188.15 40.5939Z" fill="#CCCCCC"/>
<path d="M35.0964 121.619C39.5361 121.619 43.1352 118.027 43.1352 113.597C43.1352 109.166 39.5361 105.575 35.0964 105.575C30.6567 105.575 27.0576 109.166 27.0576 113.597C27.0576 118.027 30.6567 121.619 35.0964 121.619Z" fill="#A0616A"/>
<path d="M54.8319 108.075C54.9111 108.138 54.9879 108.204 55.0622 108.275C55.4315 108.622 55.7232 109.043 55.918 109.51C56.1128 109.978 56.2065 110.481 56.1928 110.987C56.1792 111.493 56.0585 111.991 55.8387 112.447C55.6189 112.903 55.305 113.308 54.9176 113.635C54.8272 113.711 54.733 113.782 54.6352 113.847L55.1793 132.177C55.1948 132.777 55.016 133.366 54.6694 133.857C54.3229 134.347 53.8271 134.713 53.2556 134.9L53.2224 134.907L38.3086 136.492C37.9031 136.535 37.4931 136.498 37.1023 136.382C36.7115 136.266 36.3475 136.074 36.0315 135.817C35.7154 135.56 35.4536 135.243 35.261 134.884C35.0684 134.525 34.949 134.132 34.9095 133.727C34.87 133.322 34.9114 132.913 35.0311 132.524C35.1508 132.135 35.3466 131.774 35.6071 131.461C35.8676 131.148 36.1876 130.889 36.5488 130.701C36.9099 130.512 37.305 130.396 37.7111 130.36L48.3424 129.426L50.181 113.552C50.0607 113.446 49.9481 113.332 49.8439 113.21C49.2674 112.529 48.9651 111.659 48.9956 110.768C49.0261 109.877 49.3872 109.029 50.0089 108.389C50.6305 107.749 51.4684 107.363 52.3596 107.305C53.2509 107.246 54.132 107.521 54.8319 108.075H54.8319Z" fill="#A0616A"/>
<path d="M48.3363 225.242H52.3491L54.2579 209.797H48.3356L48.3363 225.242Z" fill="#A0616A"/>
<path d="M47.3129 223.935L55.2151 223.935H55.2154C55.8768 223.935 56.5316 224.065 57.1426 224.317C57.7536 224.57 58.3088 224.94 58.7764 225.406C59.2441 225.873 59.615 226.427 59.8681 227.037C60.1212 227.646 60.2514 228.3 60.2514 228.96V229.123L47.3131 229.124L47.3129 223.935Z" fill="#2F2E41"/>
<path d="M8.45312 219.706L11.9009 221.754L21.4597 209.458L16.371 206.435L8.45312 219.706Z" fill="#A0616A"/>
<path d="M8.24394 218.06L15.0338 222.094L15.0341 222.095C15.6023 222.432 16.0983 222.878 16.4938 223.407C16.8893 223.936 17.1766 224.538 17.3391 225.177C17.5017 225.817 17.5364 226.482 17.4412 227.135C17.3461 227.788 17.123 228.416 16.7846 228.984L16.7009 229.124L5.58386 222.519L8.24394 218.06Z" fill="#2F2E41"/>
<path d="M53.2959 219.787H48.8026C48.4388 219.788 48.0876 219.654 47.8171 219.411C47.5466 219.168 47.3759 218.834 47.3381 218.473L42.8082 175.981C42.7968 175.874 42.7504 175.774 42.6762 175.696C42.602 175.618 42.5042 175.567 42.3978 175.549C42.2913 175.532 42.1822 175.551 42.0873 175.602C41.9924 175.653 41.9169 175.733 41.8725 175.831L33.7005 193.889L19.2326 217.431C19.0453 217.733 18.7554 217.957 18.4159 218.063C18.0764 218.169 17.71 218.149 17.3838 218.008L11.604 215.47C11.4129 215.386 11.2418 215.263 11.1022 215.108C10.9626 214.953 10.8575 214.77 10.7941 214.571C10.7306 214.373 10.7101 214.163 10.7341 213.956C10.758 213.749 10.8257 213.55 10.9328 213.371L24.2328 191.148L28.3118 172.423C27.0289 164.303 32.5287 152.231 32.5845 152.11L32.6117 152.051L47.7611 146.142L47.837 146.235C53.8115 165.8 57.452 186.855 54.764 218.44C54.7308 218.807 54.5621 219.148 54.2906 219.397C54.0192 219.646 53.6645 219.785 53.2959 219.787Z" fill="#2F2E41"/>
<path d="M32.0015 154.029L31.9309 153.881C31.8972 153.81 28.5286 146.721 25.9319 139.143C25.4328 137.678 25.2442 136.125 25.3779 134.583C25.5116 133.041 25.9647 131.544 26.7085 130.186C27.462 128.814 28.4929 127.613 29.7358 126.659C30.9787 125.705 32.4066 125.02 33.9289 124.645C36.5718 124.013 39.3543 124.349 41.7694 125.593C44.1846 126.837 46.0717 128.905 47.087 131.42C49.1468 136.56 48.4903 142.047 47.8725 146.361L47.8602 146.448L47.7814 146.485L32.0015 154.029Z" fill="#3F3D56"/>
<path d="M44.8433 109.065H32.0786V103.513C34.8803 102.402 37.6219 101.457 39.2792 103.513C40.7549 103.513 42.1701 104.098 43.2136 105.139C44.2571 106.18 44.8433 107.593 44.8433 109.065V109.065Z" fill="#2F2E41"/>
<path d="M31.3719 102.533C23.7409 102.533 21.605 112.078 21.605 117.463C21.605 120.466 22.966 121.54 25.1046 121.903L25.8599 117.884L27.6289 122.076C28.2296 122.079 28.8607 122.068 29.515 122.056L30.1148 120.823L31.4523 122.033C36.8091 122.041 41.1386 122.821 41.1386 117.463C41.1386 112.078 39.2654 102.533 31.3719 102.533Z" fill="#2F2E41"/>
<path d="M66.9564 229.5H0.346924C0.254914 229.5 0.166672 229.464 0.101612 229.399C0.0365506 229.334 0 229.246 0 229.154C0 229.062 0.0365506 228.974 0.101612 228.909C0.166672 228.844 0.254914 228.808 0.346924 228.808H66.9564C67.0484 228.808 67.1367 228.844 67.2017 228.909C67.2668 228.974 67.3033 229.062 67.3033 229.154C67.3033 229.246 67.2668 229.334 67.2017 229.399C67.1367 229.464 67.0484 229.5 66.9564 229.5Z" fill="#CCCCCC"/>
<path d="M68.2089 115.601H53.2911C52.4174 115.6 51.5796 115.253 50.9618 114.637C50.3439 114.02 49.9964 113.184 49.9954 112.312V97.4258C49.9964 96.5539 50.3439 95.7179 50.9618 95.1013C51.5796 94.4848 52.4174 94.138 53.2911 94.137H68.2089C69.0827 94.138 69.9204 94.4848 70.5383 95.1013C71.1561 95.7179 71.5037 96.5539 71.5047 97.4258V112.312C71.5037 113.184 71.1561 114.02 70.5383 114.637C69.9204 115.253 69.0827 115.6 68.2089 115.601Z" fill="white"/>
<path d="M68.2089 115.601H53.2911C52.4174 115.6 51.5796 115.253 50.9618 114.637C50.3439 114.02 49.9964 113.184 49.9954 112.312V97.4258C49.9964 96.5539 50.3439 95.7179 50.9618 95.1013C51.5796 94.4848 52.4174 94.138 53.2911 94.137H68.2089C69.0827 94.138 69.9204 94.4848 70.5383 95.1013C71.1561 95.7179 71.5037 96.5539 71.5047 97.4258V112.312C71.5037 113.184 71.1561 114.02 70.5383 114.637C69.9204 115.253 69.0827 115.6 68.2089 115.601ZM53.2911 94.8294C52.6013 94.8301 51.9399 95.1039 51.4522 95.5907C50.9644 96.0775 50.69 96.7374 50.6892 97.4258V112.312C50.69 113.001 50.9644 113.661 51.4522 114.147C51.9399 114.634 52.6013 114.908 53.2911 114.909H68.2089C68.8987 114.908 69.5601 114.634 70.0479 114.147C70.5357 113.661 70.8101 113.001 70.8108 112.312V97.4258C70.8101 96.7374 70.5357 96.0775 70.0479 95.5907C69.5601 95.1039 68.8987 94.8301 68.2089 94.8294H53.2911Z" fill="#3F3D56"/>
<path d="M65.607 109.543H55.8931C55.6171 109.542 55.3526 109.433 55.1575 109.238C54.9623 109.043 54.8526 108.779 54.8523 108.504V101.234C54.8526 100.959 54.9623 100.695 55.1575 100.5C55.3526 100.305 55.6171 100.196 55.8931 100.195H58.6276C58.8055 100.195 58.9805 100.24 59.1358 100.326C59.2911 100.413 59.4214 100.538 59.5141 100.689L60.2767 101.926H65.607C65.8829 101.927 66.1474 102.036 66.3426 102.231C66.5377 102.426 66.6474 102.69 66.6477 102.965V108.504C66.6474 108.779 66.5377 109.043 66.3426 109.238C66.1474 109.433 65.8829 109.542 65.607 109.543Z" fill="#FAC033"/>
<path d="M65.291 113.216C65.3396 113.304 65.3844 113.395 65.4255 113.489C65.6309 113.952 65.7359 114.453 65.7337 114.959C65.7315 115.466 65.6221 115.966 65.4127 116.427C65.2033 116.888 64.8987 117.3 64.5187 117.635C64.1387 117.971 63.692 118.222 63.2077 118.373C63.0951 118.408 62.9806 118.437 62.865 118.46L56.2389 135.564C56.0198 136.123 55.626 136.596 55.1158 136.914C54.6057 137.232 54.0064 137.378 53.4069 137.329L53.3736 137.323L39.0121 133.008C38.6216 132.891 38.2583 132.698 37.9431 132.439C37.628 132.181 37.3672 131.863 37.1759 131.504C36.9845 131.145 36.8664 130.751 36.8284 130.346C36.7904 129.941 36.8331 129.532 36.9543 129.143C37.0754 128.755 37.2725 128.394 37.5341 128.082C37.7957 127.77 38.1167 127.512 38.4786 127.325C38.8404 127.137 39.2359 127.023 39.6422 126.989C40.0486 126.954 40.4577 127.001 40.8459 127.125L51.0075 130.381L58.8745 116.463C58.8049 116.319 58.7457 116.17 58.6971 116.017C58.4306 115.166 58.4904 114.247 58.8649 113.438C59.2394 112.629 59.9018 111.987 60.7236 111.638C61.5454 111.289 62.4679 111.257 63.3119 111.549C64.156 111.84 64.8613 112.434 65.291 113.216H65.291Z" fill="#A0616A"/>
</g>
<defs>
<clipPath id="clip0_36:231">
<rect width="304" height="229" fill="white" transform="translate(0 0.5)"/>
</clipPath>
</defs>
</svg>
