<svg width="430" height="239" viewBox="0 0 430 239" fill="none" xmlns="http://www.w3.org/2000/svg">
<g clip-path="url(#clip0_36:294)">
<path d="M131.497 13.4596C133.116 7.9711 136.799 2.93721 141.892 1.08178C146.985 -0.773643 154.442 2.05278 158.271 6.11098C165.274 13.5342 166.983 39.0359 162.172 47.0946C161.215 47.0408 157.912 47.0009 156.943 46.9623L155.573 42.1051V46.9145C148.012 46.666 140.141 46.8215 132.265 46.9824C131.559 41.2767 129.878 18.9482 131.497 13.4596Z" fill="#2F2E41"/>
<path d="M206.345 98.3799C205.665 98.2831 205.013 98.0288 204.435 97.635C203.857 97.2412 203.368 96.7174 203.001 96.1005C202.634 95.4837 202.399 94.7888 202.312 94.0648C202.225 93.3408 202.288 92.6053 202.497 91.9102L189.152 81.2633L197.312 78.1521L208.734 88.7395C209.809 89.1905 210.691 90.0452 211.213 91.1415C211.735 92.2379 211.86 93.4998 211.566 94.6881C211.271 95.8764 210.577 96.9086 209.615 97.589C208.653 98.2694 207.49 98.5508 206.345 98.3799Z" fill="#9E616A"/>
<path d="M153.332 42.5748L154.609 37.7706C154.609 37.7706 157.793 36.6666 163.226 40.8574C168.659 45.0482 202.198 82.4564 202.198 82.4564L192.213 83.9412L161.696 60.7558L153.332 42.5748Z" fill="#E6E6E6"/>
<path d="M362.27 226.069C382.694 214.977 398.955 192.737 398.507 168.352C379.412 185.413 355.258 194.741 330.319 194.686C320.701 194.627 310.009 193.497 302.534 199.935C297.883 203.94 295.445 210.284 294.723 216.603C294.002 222.921 294.812 229.311 295.62 235.617L295.118 237.114C317.998 238.783 341.845 237.161 362.27 226.069Z" fill="#F0F0F0"/>
<path d="M398.029 168.293C389.132 185.885 374.893 200.569 357.919 209.191C354.249 211.055 350.374 212.606 346.322 213.17C342.369 213.687 338.357 213.069 334.704 211.38C331.268 209.878 327.917 207.919 324.197 207.331C320.277 206.712 316.529 208.077 313.489 210.712C309.77 213.936 307.362 218.389 305.149 222.831C302.692 227.763 300.214 232.926 295.875 236.296C295.349 236.704 295.975 237.548 296.5 237.14C304.05 231.278 305.868 220.715 312.049 213.625C314.934 210.316 318.773 207.912 323.137 208.284C326.954 208.608 330.411 210.626 333.877 212.179C337.517 213.809 341.208 214.712 345.176 214.379C349.236 214.038 353.176 212.644 356.874 210.888C365.233 206.84 372.942 201.419 379.717 194.824C387.489 187.343 394 178.503 398.97 168.686C399.277 168.079 398.334 167.689 398.029 168.293Z" fill="white"/>
<path d="M363.575 206.698C365.354 209.545 368.027 211.626 371.116 212.571C374.205 213.515 377.509 213.262 380.438 211.855C381.03 211.568 380.638 210.576 380.046 210.863C377.32 212.179 374.243 212.415 371.368 211.529C368.493 210.643 366.011 208.694 364.369 206.033C364.012 205.455 363.22 206.123 363.575 206.698Z" fill="white"/>
<path d="M336.351 212.386C337.591 205.524 341.218 199.412 346.507 195.267C347.032 194.857 346.406 194.013 345.882 194.423C340.385 198.746 336.623 205.116 335.348 212.259C335.226 212.94 336.231 213.063 336.351 212.386H336.351Z" fill="white"/>
<path d="M386.269 186.753C385.365 185.804 384.696 184.631 384.324 183.34C383.951 182.048 383.886 180.678 384.134 179.353C384.264 178.674 383.259 178.552 383.131 179.227C382.863 180.692 382.937 182.204 383.345 183.632C383.754 185.06 384.485 186.36 385.475 187.418C385.561 187.526 385.681 187.596 385.813 187.612C385.945 187.629 386.078 187.592 386.185 187.508C386.29 187.419 386.357 187.29 386.373 187.149C386.389 187.007 386.351 186.865 386.269 186.753H386.269Z" fill="white"/>
<path d="M337.715 116.978C337.623 117.399 337.531 117.821 337.431 118.246C336.166 123.906 334.471 129.448 332.362 134.817C332.206 135.235 332.041 135.656 331.873 136.068C326.663 148.945 319.251 160.681 310.013 170.679C306.334 174.655 302.375 178.326 298.172 181.663C292.367 186.27 285.728 190.775 281.808 196.97C281.392 197.612 281.014 198.28 280.676 198.971L293.441 236.347C293.51 236.416 293.571 236.489 293.64 236.559L294.086 238.076C294.314 237.92 294.547 237.753 294.775 237.597C294.908 237.507 295.038 237.409 295.17 237.319C295.258 237.257 295.345 237.194 295.428 237.142C295.457 237.122 295.486 237.101 295.507 237.083C295.59 237.032 295.661 236.975 295.735 236.927C297.043 235.997 298.346 235.056 299.645 234.104C299.653 234.101 299.653 234.101 299.658 234.09C309.541 226.806 318.94 218.582 326.865 209.102C327.103 208.816 327.35 208.528 327.583 208.226C331.133 203.932 334.347 199.336 337.193 194.485C338.744 191.823 340.166 189.079 341.456 186.265C344.775 178.985 346.997 171.195 348.04 163.182C350.116 147.206 347.366 130.701 338.408 117.945C338.179 117.619 337.952 117.301 337.715 116.978Z" fill="#F0F0F0"/>
<path d="M337.297 117.234C340.153 136.977 337.097 157.819 328.425 175.571C326.55 179.409 324.334 183.129 321.418 186.174C318.554 189.119 315.001 191.194 311.128 192.185C307.534 193.186 303.749 193.767 300.447 195.679C296.966 197.695 294.747 201.185 293.811 205.235C292.667 210.191 293.265 215.288 294.013 220.252C294.843 225.762 295.788 231.472 294.23 236.941C294.042 237.603 295.019 237.876 295.208 237.214C297.917 227.7 293.389 218.102 294.31 208.483C294.74 203.994 296.445 199.616 300.14 197.118C303.371 194.934 307.273 194.331 310.92 193.351C314.75 192.323 318.208 190.68 321.187 187.873C324.235 185.001 326.593 181.366 328.552 177.596C332.934 169.011 336.02 159.747 337.696 150.143C339.666 139.193 339.861 127.965 338.271 116.946C338.173 116.264 337.199 116.557 337.297 117.234V117.234Z" fill="white"/>
<path d="M331.53 169.959C334.562 171.093 337.874 171.044 340.875 169.82C343.876 168.597 346.37 166.278 347.913 163.279C348.223 162.671 347.349 162.13 347.038 162.739C345.607 165.535 343.283 167.694 340.487 168.827C337.69 169.96 334.605 169.993 331.787 168.92C331.175 168.687 330.921 169.728 331.53 169.959Z" fill="white"/>
<path d="M313.013 191.933C310.119 185.66 309.554 178.457 311.431 171.761C311.617 171.098 310.639 170.825 310.453 171.487C308.512 178.459 309.114 185.954 312.14 192.474C312.429 193.095 313.3 192.55 313.013 191.933Z" fill="white"/>
<path d="M338.358 139.503C337.099 139.325 335.901 138.816 334.873 138.023C333.844 137.231 333.017 136.179 332.465 134.962C332.184 134.337 331.312 134.883 331.592 135.503C332.207 136.845 333.122 138.005 334.257 138.884C335.392 139.762 336.711 140.332 338.101 140.543C338.23 140.574 338.366 140.552 338.481 140.481C338.595 140.41 338.68 140.295 338.718 140.16C338.752 140.022 338.733 139.876 338.665 139.753C338.598 139.63 338.487 139.54 338.358 139.503V139.503Z" fill="white"/>
<path d="M116.612 49.6907C99.116 33.9226 73.5522 26.5373 52.5681 36.3765C74.7307 48.539 92.134 68.6467 101.699 93.1419C105.355 102.603 108.496 113.531 116.962 118.385C122.23 121.406 128.674 121.353 134.434 119.626C140.194 117.898 145.426 114.641 150.586 111.416L152.078 111.332C144.708 88.2357 134.108 65.4588 116.612 49.6907Z" fill="#F0F0F0"/>
<path d="M52.7012 36.8683C71.394 38.8181 89.6222 47.1316 103.645 60.4659C106.677 63.3487 109.516 66.5537 111.567 70.3127C113.54 73.993 114.55 78.1681 114.493 82.4041C114.514 86.3549 114.106 90.3988 115.029 94.2753C116.003 98.3614 118.633 101.513 122.09 103.48C126.321 105.887 131.113 106.534 135.819 106.993C141.045 107.504 146.481 107.945 151.076 110.905C151.633 111.264 152.124 110.324 151.568 109.966C143.572 104.816 133.707 107.104 125.172 103.771C121.19 102.215 117.624 99.3743 116.264 94.9484C115.075 91.0781 115.493 86.9076 115.504 82.9072C115.516 78.7066 114.876 74.7366 113.058 70.971C111.197 67.119 108.47 63.7892 105.521 60.8366C98.7862 54.1941 91.1116 48.7191 82.7781 44.6121C73.2916 39.8687 63.112 36.8861 52.6798 35.7934C52.0341 35.7261 52.0597 36.8014 52.7012 36.8683L52.7012 36.8683Z" fill="white"/>
<path d="M99.3019 55.8759C101.086 53.0329 101.862 49.6078 101.491 46.2125C101.12 42.8172 99.6263 39.6727 97.2765 37.3406C96.7996 36.8704 96.0902 37.6366 96.5678 38.1074C98.7596 40.2748 100.151 43.204 100.49 46.3665C100.83 49.529 100.095 52.7163 98.4187 55.3532C98.0551 55.9267 98.9403 56.4461 99.3019 55.8759V55.8759Z" fill="white"/>
<path d="M114.73 80.3995C108.299 81.8274 101.598 80.6248 95.963 77.0315C95.405 76.675 94.9142 77.6148 95.4716 77.9708C101.342 81.6985 108.318 82.9349 115.007 81.4333C115.645 81.2897 115.365 80.2567 114.73 80.3995V80.3995Z" fill="white"/>
<path d="M73.2502 41.2935C72.7754 42.5465 72.0154 43.6545 71.0384 44.5179C70.0614 45.3814 68.8981 45.9732 67.6529 46.2404C67.014 46.3753 67.2951 47.4082 67.9299 47.2742C69.3043 46.9722 70.5883 46.3169 71.6697 45.3655C72.7511 44.4141 73.597 43.1955 74.1334 41.8162C74.1942 41.6907 74.2078 41.5453 74.1715 41.4095C74.1351 41.2737 74.0514 41.1577 73.9376 41.0852C73.8203 41.0166 73.6823 41 73.5536 41.039C73.4249 41.078 73.3159 41.1695 73.2502 41.2935V41.2935Z" fill="white"/>
<path d="M31.4266 115.836C31.8278 115.764 32.2291 115.692 32.6364 115.626C38.035 114.685 43.4966 114.213 48.9673 114.213C49.3903 114.205 49.819 114.205 50.2413 114.211C63.4213 114.36 76.4608 117.11 88.6968 122.322C93.564 124.401 98.2754 126.87 102.79 129.709C109.025 133.63 115.492 138.409 122.379 139.867C123.095 140.028 123.821 140.141 124.551 140.207L152.059 113.274C152.092 113.18 152.132 113.091 152.166 112.996L153.311 111.974C153.087 111.811 152.852 111.646 152.629 111.482C152.5 111.387 152.365 111.297 152.236 111.202C152.148 111.14 152.059 111.078 151.983 111.017C151.954 110.997 151.924 110.976 151.901 110.962C151.825 110.901 151.748 110.853 151.678 110.799C150.367 109.874 149.049 108.958 147.722 108.05C147.716 108.043 147.716 108.043 147.704 108.042C137.576 101.151 126.817 95.0984 115.537 90.9748C115.198 90.8508 114.853 90.7199 114.501 90.6083C109.407 88.7795 104.18 87.3967 98.8742 86.4735C95.9672 85.9779 93.0385 85.6392 90.0994 85.4586C82.5041 85.0074 74.8894 85.8296 67.5344 87.895C52.8728 92.0148 39.6133 101.075 31.9987 114.783C31.8042 115.134 31.6154 115.479 31.4266 115.836Z" fill="#F0F0F0"/>
<path d="M31.8099 116.147C47.8388 105.735 67.0994 100.701 85.8444 102.368C89.8971 102.729 93.9786 103.47 97.7444 105.158C101.403 106.833 104.573 109.52 106.926 112.939C109.179 116.08 111.142 119.57 114.074 122.074C117.165 124.713 121.048 125.545 124.923 124.902C129.664 124.115 133.856 121.563 137.874 118.916C142.335 115.978 146.925 112.85 152.27 112.27C152.917 112.2 152.777 111.135 152.131 111.206C142.831 112.214 136.249 120.357 127.548 123.161C123.488 124.469 119.033 124.483 115.441 121.82C112.301 119.492 110.274 115.894 108.018 112.693C105.649 109.331 102.891 106.571 99.307 104.729C95.6409 102.845 91.578 101.933 87.5518 101.463C78.4144 100.472 69.1873 101.015 60.2084 103.071C49.9487 105.358 40.1324 109.495 31.1843 115.302C30.6306 115.662 31.2598 116.504 31.8099 116.147L31.8099 116.147Z" fill="white"/>
<path d="M79.7784 101.484C79.5935 98.072 78.2741 94.8405 76.0557 92.3671C73.8374 89.8937 70.8646 88.3394 67.6682 87.9819C67.0212 87.912 66.8885 88.9779 67.5364 89.048C70.5134 89.3751 73.2825 90.8231 75.3438 93.1308C77.4051 95.4386 78.6229 98.4539 78.7773 101.633C78.8116 102.323 79.8125 102.171 79.7784 101.484V101.484Z" fill="white"/>
<path d="M105.98 111.186C101.654 116.444 95.6222 119.775 89.0889 120.514C88.4415 120.587 88.5817 121.651 89.2282 121.579C96.0255 120.796 102.295 117.317 106.787 111.834C107.214 111.311 106.406 110.666 105.98 111.186V111.186Z" fill="white"/>
<path d="M50.7222 106.522C51.0524 107.827 51.0728 109.198 50.7816 110.513C50.4903 111.828 49.8965 113.046 49.0535 114.056C48.6198 114.573 49.429 115.218 49.8599 114.704C50.7864 113.583 51.4407 112.238 51.7655 110.786C52.0903 109.334 52.0758 107.819 51.7233 106.374C51.7008 106.235 51.6293 106.11 51.5234 106.025C51.4175 105.94 51.2851 105.901 51.1531 105.916C51.0206 105.936 50.9011 106.011 50.8204 106.125C50.7397 106.239 50.7044 106.381 50.7222 106.522V106.522Z" fill="white"/>
<path d="M302.496 144.071C302.424 142.713 301.902 141.426 301.022 140.439C300.143 139.452 298.963 138.828 297.692 138.678L219.497 129.294C218.747 129.203 217.988 129.28 217.267 129.519L199.329 135.492L189.037 138.923L170.043 145.246C168.897 145.629 167.902 146.406 167.216 147.455C166.529 148.504 166.189 149.766 166.249 151.043L169.456 232.095C169.524 233.412 170.013 234.665 170.841 235.647C171.669 236.629 172.788 237.282 174.011 237.496L253.852 237.682C254.227 237.746 254.607 237.768 254.987 237.746C255.539 237.717 256.085 237.599 256.604 237.394L303.39 237.051C304.48 236.624 305.412 235.834 306.047 234.8C306.682 233.765 306.986 232.54 306.915 231.307L302.496 144.071Z" fill="white"/>
<path d="M174.765 232.512L254.605 232.696C254.722 232.717 254.842 232.705 254.953 232.662L301.733 232.32C301.87 232.268 301.988 232.169 302.067 232.039C302.147 231.909 302.185 231.755 302.175 231.601L297.762 144.362C297.751 144.194 297.685 144.034 297.576 143.911C297.466 143.788 297.32 143.709 297.162 143.688L296.636 143.622L218.964 134.311C218.928 134.306 218.892 134.305 218.857 134.308C218.798 134.31 218.74 134.32 218.684 134.337L174.933 148.909L171.46 150.062C171.318 150.111 171.195 150.209 171.11 150.339C171.025 150.47 170.982 150.626 170.988 150.785L174.196 231.834C174.204 232 174.264 232.157 174.368 232.28C174.472 232.404 174.612 232.485 174.765 232.512Z" fill="#FAC033"/>
<path d="M174.933 148.909L218.684 134.337C218.74 134.32 218.798 134.31 218.857 134.308C218.892 134.305 218.928 134.306 218.964 134.311L296.636 143.622L277.93 150.096L270.928 152.515L251.007 159.405C250.948 159.421 250.888 159.434 250.828 159.443C250.789 159.439 250.751 159.436 250.705 159.433L174.933 148.909Z" fill="#2F2E41"/>
<path d="M174.011 237.501L253.851 237.684C254.227 237.748 254.608 237.767 254.988 237.741C255.541 237.714 256.087 237.599 256.608 237.398L303.388 237.056C304.478 236.628 305.41 235.838 306.046 234.803C306.681 233.767 306.986 232.542 306.916 231.308L302.495 144.071C302.439 143.049 302.13 142.061 301.599 141.208C301.526 141.095 301.453 140.982 301.373 140.878C300.823 140.113 300.099 139.511 299.268 139.128C298.767 138.894 298.236 138.743 297.693 138.678L297.6 138.665L219.501 129.292C219.183 129.258 218.863 129.248 218.543 129.263C218.109 129.294 217.68 129.382 217.265 129.524L199.329 135.49L189.039 138.926L170.042 145.248C169.264 145.506 168.552 145.948 167.959 146.541C167.912 146.58 167.868 146.623 167.828 146.671C167.799 146.702 167.771 146.735 167.747 146.77C167.238 147.336 166.843 148.006 166.586 148.74C166.329 149.473 166.215 150.255 166.251 151.037L169.452 232.095C169.52 233.413 170.009 234.667 170.838 235.65C171.667 236.633 172.786 237.286 174.011 237.501ZM167.603 150.97C167.566 150.159 167.747 149.354 168.124 148.649C168.236 148.424 168.37 148.212 168.522 148.016C168.937 147.472 169.47 147.045 170.076 146.771C170.195 146.715 170.317 146.668 170.442 146.629L202.429 135.981L217.673 130.895C217.776 130.858 217.873 130.838 217.969 130.81C218.203 130.752 218.443 130.718 218.683 130.707C218.903 130.689 219.123 130.694 219.342 130.725L297.534 140.11C297.596 140.119 297.65 140.129 297.712 140.137C298.429 140.25 299.102 140.57 299.66 141.062C300.097 141.436 300.455 141.904 300.711 142.435C300.967 142.967 301.115 143.55 301.144 144.146L305.558 231.392C305.611 232.316 305.383 233.233 304.909 234.009C304.434 234.785 303.737 235.378 302.921 235.7L256.133 236.042C255.472 236.3 254.759 236.373 254.064 236.254L174.225 236.078C173.308 235.914 172.471 235.424 171.851 234.688C171.23 233.952 170.864 233.014 170.811 232.027L167.603 150.97Z" fill="#3F3D56"/>
<path d="M255.23 237.901C255.051 237.911 254.876 237.845 254.743 237.718C254.61 237.591 254.529 237.414 254.519 237.224L250.118 158.762C250.108 158.571 250.169 158.383 250.288 158.24C250.407 158.097 250.575 158.01 250.755 157.999L250.761 157.999C250.939 157.989 251.114 158.055 251.248 158.182C251.381 158.308 251.461 158.486 251.472 158.676L255.872 237.138C255.883 237.329 255.822 237.517 255.702 237.66C255.583 237.803 255.415 237.89 255.236 237.901L255.23 237.901Z" fill="#3F3D56"/>
<path d="M282.832 232.594L275.172 232.538L267.903 152.044C267.903 152.044 277.105 148.042 277.508 148.723C277.754 149.128 282.804 232.095 282.832 232.594Z" fill="#3F3D56"/>
<path d="M300.057 141.748L299.504 141.267C298.935 140.769 298.241 140.459 297.508 140.374L219.318 130.988C218.886 130.938 218.45 130.963 218.026 131.064L217.734 131.141L217.674 129.897L230.642 114.641C231.414 113.737 232.372 113.034 233.441 112.588C234.511 112.142 235.662 111.964 236.807 112.069L289.667 117.043C291.246 117.186 292.74 117.865 293.929 118.979C295.118 120.093 295.939 121.585 296.271 123.233L300.057 141.748Z" fill="#3F3D56"/>
<path d="M181.874 203.138C181.957 203.123 182.042 203.119 182.126 203.124L206.192 204.675C206.493 204.695 206.775 204.841 206.975 205.081C207.175 205.321 207.277 205.636 207.259 205.956C207.241 206.277 207.104 206.576 206.878 206.789C206.652 207.002 206.356 207.111 206.055 207.092L181.989 205.54C181.71 205.522 181.446 205.395 181.249 205.184C181.052 204.972 180.936 204.691 180.921 204.394C180.907 204.097 180.996 203.804 181.172 203.572C181.348 203.341 181.598 203.186 181.874 203.138Z" fill="white"/>
<path d="M182.277 212.129C182.36 212.114 182.445 212.11 182.529 212.115L206.595 213.667C206.896 213.686 207.178 213.832 207.378 214.072C207.578 214.312 207.681 214.627 207.662 214.948C207.644 215.268 207.507 215.568 207.281 215.781C207.055 215.993 206.759 216.102 206.458 216.083L182.392 214.532C182.113 214.514 181.85 214.387 181.653 214.175C181.456 213.964 181.339 213.682 181.325 213.385C181.31 213.088 181.4 212.795 181.575 212.564C181.751 212.332 182.001 212.177 182.277 212.129Z" fill="white"/>
<path d="M297.383 104.77L250.962 131.65L231.89 94.3954L278.311 67.5155L297.383 104.77Z" fill="white"/>
<path d="M297.383 104.77L250.962 131.65L231.89 94.3954L278.311 67.5155L297.383 104.77ZM251.351 130.247L296.064 104.356L277.922 68.918L233.209 94.8091L251.351 130.247Z" fill="#E6E6E6"/>
<path d="M277.382 81.2075L243.207 100.997L244.448 103.42L278.623 83.6306L277.382 81.2075Z" fill="#FAC033"/>
<path d="M281.104 88.4762L246.928 108.265L248.169 110.688L282.344 90.8993L281.104 88.4762Z" fill="#FAC033"/>
<path d="M284.825 95.7456L250.65 115.535L251.89 117.958L286.066 98.1687L284.825 95.7456Z" fill="#FAC033"/>
<path d="M191.6 71.9401C191.12 71.3686 190.957 71.3103 190.787 71.4353L164.37 90.8193C164.201 90.9429 164.191 91.1254 164.518 91.7972C165.382 93.2185 166.437 94.8969 167.592 96.6773L201.581 149.068C204.767 153.979 207.535 157.846 207.75 157.687L234.167 138.303C234.383 138.145 231.967 134.021 228.781 129.11L194.792 76.7186C193.64 74.9422 192.542 73.3011 191.6 71.9401Z" fill="white"/>
<path d="M195.119 76.8439C194.519 75.9483 193.946 75.118 193.435 74.3945C192.82 73.5276 192.315 72.8406 191.932 72.3494C191.806 72.1895 191.698 72.0524 191.6 71.9401C191.12 71.3686 190.957 71.3103 190.787 71.4353L164.37 90.8193C164.201 90.9429 164.191 91.1254 164.518 91.7972C164.585 91.935 164.668 92.097 164.767 92.2831C165.061 92.8361 165.486 93.5814 166.031 94.5031C166.943 96.0375 168.142 97.9548 169.406 99.9042L201.683 149.656C203.148 151.915 204.57 154.011 205.683 155.56C207.538 158.14 207.675 158.04 207.881 157.889L234.298 138.505C234.504 138.353 234.64 138.253 233.031 135.493C232.065 133.836 230.727 131.679 229.261 129.42L196.985 79.6679C196.352 78.6922 195.72 77.7361 195.119 76.8439ZM169.785 99.6266C168.524 97.6832 167.327 95.7699 166.421 94.2436C165.878 93.3294 165.458 92.5867 165.168 92.0417C165.005 91.7534 164.862 91.4524 164.741 91.1412L190.938 71.9181C191.168 72.149 191.382 72.3981 191.578 72.6632C191.767 72.9041 191.987 73.1941 192.237 73.5334C192.486 73.8736 192.763 74.2592 193.069 74.6902C194.089 76.1332 195.344 78.0001 196.606 79.9455L228.883 129.697C231.946 134.419 233.711 137.531 233.929 138.181L207.728 157.407C207.233 156.959 205.124 154.1 202.061 149.378L169.785 99.6266Z" fill="#E4E4E4"/>
<path d="M185.952 88.0546L180.95 91.7246C180.7 91.9088 180.528 92.1913 180.473 92.51C180.418 92.8288 180.484 93.1577 180.657 93.4246L183.646 98.0316C183.819 98.2979 184.085 98.4803 184.385 98.5387C184.684 98.5972 184.993 98.527 185.244 98.3434L190.246 94.6735C190.496 94.4888 190.667 94.2063 190.722 93.8878C190.777 93.5693 190.711 93.2406 190.539 92.9735L187.55 88.3665C187.377 88.1002 187.111 87.9178 186.812 87.8593C186.512 87.8009 186.203 87.8711 185.952 88.0546Z" fill="#FAC033"/>
<path d="M198.412 93.1233L180.981 105.914C180.925 105.956 180.876 106.008 180.839 106.069C180.802 106.131 180.776 106.199 180.764 106.271C180.752 106.342 180.753 106.416 180.767 106.487C180.781 106.558 180.809 106.626 180.848 106.686C180.887 106.746 180.936 106.797 180.994 106.837C181.051 106.876 181.116 106.903 181.183 106.917C181.25 106.93 181.32 106.929 181.387 106.913C181.454 106.898 181.517 106.869 181.573 106.828L199.005 94.0367C199.061 93.9953 199.11 93.9425 199.147 93.8813C199.184 93.8201 199.209 93.7518 199.222 93.6801C199.234 93.6084 199.233 93.5349 199.219 93.4637C199.204 93.3924 199.177 93.3249 199.138 93.2649C199.099 93.2049 199.05 93.1537 198.992 93.1141C198.934 93.0745 198.87 93.0474 198.803 93.0343C198.735 93.0211 198.666 93.0222 198.599 93.0375C198.532 93.0528 198.469 93.0819 198.412 93.1233Z" fill="#E4E4E4"/>
<path d="M188.99 103.197L182.37 108.055C182.313 108.096 182.265 108.149 182.228 108.21C182.191 108.271 182.165 108.34 182.153 108.411C182.14 108.483 182.141 108.557 182.156 108.628C182.17 108.699 182.198 108.767 182.236 108.826C182.275 108.886 182.325 108.938 182.383 108.977C182.44 109.017 182.504 109.044 182.572 109.057C182.639 109.07 182.708 109.069 182.775 109.054C182.842 109.039 182.906 109.009 182.962 108.968L189.583 104.11C189.697 104.026 189.775 103.898 189.8 103.753C189.825 103.609 189.795 103.459 189.716 103.338C189.637 103.217 189.517 103.134 189.381 103.108C189.245 103.081 189.104 103.113 188.99 103.197V103.197Z" fill="#E4E4E4"/>
<path d="M198.873 107.971L193.871 111.641C193.621 111.826 193.449 112.108 193.394 112.427C193.339 112.746 193.405 113.074 193.578 113.341L196.567 117.948C196.74 118.215 197.006 118.397 197.306 118.455C197.605 118.514 197.914 118.444 198.165 118.26L203.167 114.59C203.417 114.405 203.588 114.123 203.643 113.805C203.698 113.486 203.632 113.157 203.46 112.89L200.471 108.283C200.298 108.017 200.032 107.835 199.733 107.776C199.433 107.718 199.124 107.788 198.873 107.971Z" fill="#FAC033"/>
<path d="M211.333 113.04L193.902 125.831C193.788 125.914 193.71 126.043 193.685 126.187C193.66 126.332 193.69 126.482 193.769 126.603C193.847 126.724 193.968 126.807 194.104 126.833C194.24 126.86 194.38 126.828 194.494 126.744L211.926 113.953C211.982 113.912 212.03 113.859 212.068 113.798C212.105 113.737 212.13 113.669 212.143 113.597C212.155 113.525 212.154 113.452 212.14 113.38C212.125 113.309 212.098 113.242 212.059 113.182C212.02 113.122 211.97 113.07 211.913 113.031C211.855 112.991 211.791 112.964 211.724 112.951C211.656 112.938 211.587 112.939 211.52 112.954C211.453 112.97 211.39 112.999 211.333 113.04Z" fill="#E4E4E4"/>
<path d="M201.911 123.113L195.29 127.971C195.177 128.055 195.099 128.183 195.074 128.328C195.049 128.473 195.079 128.622 195.157 128.743C195.236 128.864 195.357 128.947 195.493 128.974C195.629 129 195.769 128.968 195.883 128.885L202.504 124.027C202.56 123.985 202.608 123.932 202.646 123.871C202.683 123.81 202.708 123.742 202.721 123.67C202.733 123.598 202.732 123.525 202.718 123.454C202.703 123.382 202.676 123.315 202.637 123.255C202.598 123.195 202.548 123.144 202.491 123.104C202.433 123.065 202.369 123.037 202.302 123.024C202.234 123.011 202.165 123.012 202.098 123.027C202.031 123.043 201.968 123.072 201.911 123.113Z" fill="#E4E4E4"/>
<path d="M211.794 127.888L206.792 131.558C206.541 131.742 206.37 132.025 206.315 132.344C206.26 132.662 206.326 132.991 206.499 133.258L209.488 137.865C209.661 138.131 209.927 138.314 210.226 138.372C210.526 138.431 210.835 138.36 211.086 138.177L216.088 134.507C216.338 134.322 216.509 134.04 216.564 133.721C216.619 133.403 216.553 133.074 216.381 132.807L213.392 128.2C213.219 127.934 212.953 127.751 212.654 127.693C212.354 127.634 212.045 127.705 211.794 127.888Z" fill="#FAC033"/>
<path d="M224.254 132.957L206.823 145.748C206.766 145.789 206.718 145.842 206.681 145.903C206.644 145.964 206.618 146.033 206.606 146.104C206.594 146.176 206.595 146.249 206.609 146.321C206.623 146.392 206.651 146.459 206.69 146.519C206.729 146.579 206.778 146.631 206.836 146.67C206.893 146.71 206.958 146.737 207.025 146.75C207.092 146.763 207.162 146.762 207.228 146.747C207.295 146.732 207.359 146.702 207.415 146.661L224.847 133.87C224.961 133.787 225.039 133.658 225.064 133.514C225.089 133.369 225.059 133.22 224.98 133.098C224.901 132.977 224.781 132.894 224.645 132.868C224.509 132.841 224.368 132.873 224.254 132.957V132.957Z" fill="#E4E4E4"/>
<path d="M214.832 143.03L208.212 147.888C208.155 147.93 208.107 147.982 208.07 148.044C208.033 148.105 208.007 148.173 207.995 148.245C207.982 148.316 207.983 148.39 207.998 148.461C208.012 148.532 208.039 148.6 208.078 148.66C208.117 148.72 208.167 148.771 208.224 148.811C208.282 148.85 208.346 148.877 208.414 148.891C208.481 148.904 208.55 148.903 208.617 148.887C208.684 148.872 208.748 148.843 208.804 148.802L215.425 143.943C215.539 143.86 215.617 143.732 215.642 143.587C215.667 143.442 215.637 143.293 215.558 143.172C215.479 143.051 215.359 142.968 215.223 142.941C215.087 142.914 214.946 142.946 214.832 143.03Z" fill="#E4E4E4"/>
<path d="M270.282 95.3277C270.177 92.6008 270.018 90.8429 269.834 90.8429H202.423C202.238 90.8429 202.079 92.6008 201.974 95.3277C201.905 97.2286 201.86 99.6007 201.86 102.169V152.121L202.134 152.158L213.216 153.694L224.767 155.303L230.044 156.034L241.331 157.601L250.706 158.904C250.751 158.909 250.79 158.909 250.83 158.914C250.89 158.904 250.95 158.893 251.004 158.877L254.694 157.601L258.95 156.129L270.123 152.264L270.396 152.169V102.169C270.396 99.6007 270.352 97.2286 270.282 95.3277Z" fill="white"/>
<path d="M270.506 94.147C270.471 93.4375 270.436 92.8656 270.396 92.4103C270.368 91.9345 270.305 91.4617 270.207 90.9965C270.098 90.5518 269.973 90.5518 269.834 90.5518H202.422C202.283 90.5518 202.159 90.5518 202.049 90.9965C201.953 91.4853 201.889 91.9807 201.86 92.4791C201.825 92.9239 201.79 93.4745 201.755 94.147C201.646 96.2914 201.586 99.1401 201.586 102.169V152.079L201.86 152.121L202.134 152.158V102.169C202.134 99.5319 202.179 97.2975 202.243 95.5343C202.255 94.0592 202.367 92.587 202.577 91.1289H269.684C269.894 92.5852 270.006 94.0557 270.018 95.529C270.078 97.2922 270.122 99.5266 270.122 102.169V152.264L270.67 152.073V102.169C270.67 99.1401 270.61 96.2914 270.506 94.147Z" fill="#E4E4E4"/>
<path d="M223.139 106.071H214.541C214.327 106.071 214.116 106.115 213.918 106.201C213.721 106.288 213.541 106.415 213.39 106.575C213.239 106.736 213.119 106.926 213.037 107.136C212.955 107.345 212.913 107.57 212.913 107.797V115.719C212.912 115.946 212.954 116.171 213.036 116.382C213.118 116.592 213.237 116.783 213.389 116.944C213.54 117.104 213.72 117.232 213.917 117.319C214.115 117.406 214.327 117.45 214.541 117.45H223.139C223.57 117.45 223.985 117.267 224.29 116.943C224.595 116.618 224.767 116.178 224.767 115.719V107.797C224.766 107.339 224.594 106.9 224.288 106.576C223.983 106.253 223.57 106.071 223.139 106.071Z" fill="#FAC033"/>
<path d="M258.607 109.137H228.635C228.44 109.137 228.252 109.219 228.114 109.366C227.976 109.513 227.898 109.713 227.898 109.92C227.898 110.128 227.976 110.328 228.114 110.475C228.252 110.622 228.44 110.704 228.635 110.704H258.607C258.802 110.704 258.99 110.622 259.128 110.475C259.266 110.328 259.344 110.128 259.344 109.92C259.344 109.713 259.266 109.513 259.128 109.366C258.99 109.219 258.802 109.137 258.607 109.137Z" fill="#E4E4E4"/>
<path d="M240.017 112.817H228.635C228.44 112.817 228.252 112.899 228.114 113.046C227.976 113.193 227.898 113.393 227.898 113.601C227.898 113.808 227.976 114.008 228.114 114.155C228.252 114.302 228.44 114.384 228.635 114.384H240.017C240.212 114.384 240.399 114.302 240.538 114.155C240.676 114.008 240.753 113.808 240.753 113.601C240.753 113.393 240.676 113.193 240.538 113.046C240.399 112.899 240.212 112.817 240.017 112.817Z" fill="#E4E4E4"/>
<path d="M223.139 129.517H214.541C214.109 129.517 213.695 129.7 213.39 130.024C213.084 130.349 212.913 130.789 212.913 131.248V139.17C212.913 139.629 213.084 140.069 213.39 140.394C213.695 140.718 214.109 140.901 214.541 140.901H223.139C223.57 140.9 223.984 140.717 224.289 140.393C224.594 140.068 224.766 139.628 224.767 139.17V131.248C224.766 130.79 224.594 130.35 224.289 130.025C223.984 129.701 223.57 129.518 223.139 129.517Z" fill="#FAC033"/>
<path d="M258.607 132.583H228.635C228.439 132.583 228.251 132.666 228.112 132.813C227.974 132.961 227.896 133.161 227.896 133.369C227.896 133.578 227.974 133.778 228.112 133.925C228.251 134.073 228.439 134.155 228.635 134.155H258.607C258.803 134.155 258.991 134.073 259.13 133.925C259.268 133.778 259.346 133.578 259.346 133.369C259.346 133.161 259.268 132.961 259.13 132.813C258.991 132.666 258.803 132.583 258.607 132.583Z" fill="#E4E4E4"/>
<path d="M240.016 136.263H228.635C228.439 136.263 228.251 136.346 228.112 136.493C227.974 136.64 227.896 136.84 227.896 137.049C227.896 137.258 227.974 137.458 228.112 137.605C228.251 137.752 228.439 137.835 228.635 137.835H240.016C240.213 137.835 240.401 137.752 240.539 137.605C240.678 137.458 240.756 137.258 240.756 137.049C240.756 136.84 240.678 136.64 240.539 136.493C240.401 136.346 240.213 136.263 240.016 136.263Z" fill="#E4E4E4"/>
<path d="M224.533 153.81C224.389 153.553 224.185 153.34 223.941 153.193C223.696 153.045 223.42 152.968 223.139 152.968H214.541C214.281 152.967 214.026 153.033 213.795 153.159C213.565 153.285 213.366 153.469 213.216 153.693L224.767 155.303V154.694C224.767 154.382 224.686 154.076 224.533 153.81Z" fill="#FAC033"/>
<path d="M258.607 156.034H230.044L241.331 157.601H254.694L258.95 156.129C258.846 156.065 258.727 156.032 258.607 156.034Z" fill="#E4E4E4"/>
<path d="M300.602 142.225C300.547 142.262 300.489 142.292 300.428 142.315L297.953 143.167L277.929 150.098L270.929 152.513L270.67 152.603L270.122 152.793L258.95 156.659L254.694 158.131L251.004 159.407C250.95 159.423 250.89 159.433 250.83 159.444C250.79 159.438 250.75 159.438 250.706 159.433L241.331 158.131L230.044 156.563L224.767 155.833L213.216 154.223L202.134 152.687L201.86 152.65L201.586 152.608L168.523 148.017L168.244 147.975C168.179 147.969 168.117 147.949 168.06 147.917C167.926 147.853 167.816 147.746 167.744 147.61C167.673 147.475 167.644 147.319 167.661 147.165C167.674 147.036 167.721 146.913 167.796 146.81C167.826 146.778 167.851 146.747 167.88 146.72C167.905 146.704 167.935 146.672 167.965 146.657C168.099 146.559 168.262 146.517 168.423 146.54L170.076 146.773L201.586 151.152L201.86 151.189L202.134 151.226L218.459 153.498L224.533 154.339L240.519 156.563L250.731 157.982L254.838 156.563L267.902 152.047L270.123 151.279L270.396 151.184L270.67 151.088L277.506 148.727L297.839 141.69L299.661 141.06L300.014 140.938C300.167 140.887 300.331 140.894 300.478 140.959C300.626 141.024 300.747 141.142 300.821 141.293C300.839 141.328 300.854 141.366 300.866 141.404C300.91 141.553 300.909 141.713 300.861 141.861C300.814 142.009 300.723 142.136 300.602 142.225Z" fill="#3F3D56"/>
<path d="M231.851 192.018C231.413 192.018 230.977 191.983 230.545 191.911L180.557 183.608C178.84 183.317 177.247 182.479 175.989 181.203C174.731 179.928 173.866 178.277 173.51 176.467L167.931 147.668L168.275 147.713L251.841 158.456L239.622 186.73C238.935 188.307 237.838 189.643 236.462 190.58C235.085 191.517 233.485 192.016 231.851 192.018Z" fill="#3F3D56"/>
<path d="M145.079 225.384L151.166 224.034L149.168 198.419L140.184 200.412L145.079 225.384Z" fill="#9E616A"/>
<path d="M142.389 222.646L144.209 238.371L144.213 238.403L144.355 238.371L148.534 237.443L148.455 232.936L151.278 236.838L153.981 236.241V236.237L159.44 235.026L159.882 234.931L161.567 234.556L162.735 234.298C163.173 234.2 163.579 233.985 163.917 233.674C164.255 233.362 164.513 232.965 164.666 232.518C164.82 232.072 164.864 231.591 164.795 231.121C164.726 230.652 164.545 230.209 164.27 229.834C164.06 229.55 163.801 229.311 163.507 229.129C163.469 229.109 163.432 229.085 163.394 229.065H163.391C163.334 229.033 163.278 229.005 163.218 228.978L163.117 228.93L161.331 228.129L161.324 228.125L156.61 226.015L152.753 224.287L151.896 219.903L150.866 220.201L144.426 222.057L142.389 222.646Z" fill="#2F2E41"/>
<path d="M103.242 204.472L107.97 208.768L125.801 191.42L118.824 185.079L103.242 204.472Z" fill="#9E616A"/>
<path d="M96.3804 214.757L99.6864 211.932L98.5139 216.692L107.41 224.778C107.67 225.016 107.972 225.197 108.298 225.31C108.544 225.394 108.8 225.441 109.058 225.447C109.466 225.457 109.871 225.367 110.241 225.182C110.61 224.998 110.934 224.724 111.187 224.383C111.44 224.043 111.615 223.644 111.698 223.219C111.781 222.794 111.769 222.354 111.665 221.934L108.752 210.258L111.49 206.854L110.638 206.171L105.316 201.888L103.633 200.535L93.0275 211.705L96.3804 214.757Z" fill="#2F2E41"/>
<path d="M127.155 102.195L156.462 100.996L157.565 69.3719L132.801 70.2175L127.155 102.195Z" fill="#9E616A"/>
<path d="M149.068 31.65C155.232 31.65 160.228 26.3357 160.228 19.7802C160.228 13.2247 155.232 7.9104 149.068 7.9104C142.904 7.9104 137.907 13.2247 137.907 19.7802C137.907 26.3357 142.904 31.65 149.068 31.65Z" fill="#9E616A"/>
<path d="M139.435 9.35569L152.286 2.51233C154.913 3.77142 157.176 5.75509 158.839 8.25763C160.503 10.7602 161.506 13.6904 161.746 16.7445L162.066 20.8249L156.685 19.3681L156.096 14.1505L155.182 18.9611L152.698 18.2891L152.722 10.1888L150.237 18.2833L141.368 16.1161L139.435 9.35569Z" fill="#2F2E41"/>
<path d="M157.026 93.8037C157.026 93.8037 166.79 111.853 157.363 139.238L144.032 175.389L120.87 200.318L108.422 192.492L131.566 171.624L121.245 134.414C118.868 125.981 118.136 117.121 119.092 108.377C119.835 101.833 125.388 96.7273 129.186 90.5518C141.869 99.2522 156.478 97.8524 157.026 93.8037Z" fill="#2F2E41"/>
<path d="M144.049 166.248L152.739 209.182L140.168 211.703L133.008 175.61L144.049 166.248Z" fill="#2F2E41"/>
<path d="M140.888 35.6189L155.318 35.8235L160.014 42.1657C162.257 42.7283 164.295 43.9796 165.875 45.764C167.455 47.5485 168.506 49.7874 168.899 52.2025L169.342 54.9254C170.259 60.5585 169.286 66.3552 166.593 71.303L157.784 80.1465L158.166 80.8848C158.354 81.2498 158.41 81.676 158.321 82.0817C158.233 82.4875 158.007 82.8442 157.686 83.0836C157.957 83.8089 157.988 84.6101 157.776 85.3568L157.589 86.0114C157.589 86.0114 162.528 87.4077 132.057 82.5974C131.412 82.4951 130.815 82.172 130.357 81.6769C129.9 81.1817 129.606 80.5416 129.521 79.8532C129.19 79.499 128.972 79.0431 128.897 78.5499C128.823 78.0568 128.896 77.5511 129.106 77.1044L129.168 76.9724L128.855 76.5805C128.507 76.1444 128.306 75.597 128.284 75.0254C128.261 74.4538 128.42 73.8907 128.733 73.4256L128.653 54.8553C128.287 52.0686 128.863 49.2342 130.28 46.8578C131.696 44.4813 133.861 42.7174 136.387 41.8807L140.888 35.6189Z" fill="#E6E6E6"/>
<path d="M181.934 115.009C181.926 114.279 181.769 113.56 181.472 112.902C181.175 112.243 180.746 111.663 180.215 111.2C179.684 110.737 179.064 110.404 178.399 110.224C177.734 110.044 177.04 110.021 176.366 110.156L168.059 94.77L164.159 103.004L172.645 116.353C172.935 117.543 173.625 118.578 174.584 119.263C175.544 119.948 176.706 120.234 177.851 120.069C178.996 119.903 180.044 119.296 180.796 118.364C181.549 117.431 181.953 116.237 181.934 115.009V115.009Z" fill="#9E616A"/>
<path d="M136.327 52.2365L131.687 52.9976C131.687 52.9976 130.268 56.2237 133.516 62.4704C136.764 68.7171 167.58 108.686 167.58 108.686L170.184 98.3278L152.273 63.2845L136.327 52.2365Z" fill="#E6E6E6"/>
<path d="M428.907 238.5H1.09292C0.935996 238.5 0.785658 238.433 0.674857 238.315C0.564056 238.197 0.501831 238.037 0.501831 237.87C0.501831 237.703 0.564056 237.543 0.674857 237.425C0.785658 237.306 0.935996 237.24 1.09292 237.239H428.907C429.065 237.239 429.215 237.306 429.326 237.424C429.438 237.542 429.5 237.702 429.5 237.87C429.5 238.037 429.438 238.197 429.326 238.315C429.215 238.434 429.065 238.5 428.907 238.5Z" fill="#CCCCCC"/>
</g>
<defs>
<clipPath id="clip0_36:294">
<rect width="429" height="238" fill="white" transform="translate(0.5 0.5)"/>
</clipPath>
</defs>
</svg>
