<svg width="354" height="230" viewBox="0 0 354 230" fill="none" xmlns="http://www.w3.org/2000/svg">
<g clip-path="url(#clip0_36:371)">
<path d="M247.074 154.938C210.656 154.94 178.97 127.764 174.289 90.6983L175.184 90.5851C179.807 127.194 211.107 154.034 247.075 154.036C250.131 154.036 253.183 153.844 256.215 153.459C295.884 148.446 324.081 112.085 319.069 72.4024L319.964 72.2892C325.037 112.465 296.491 149.279 256.328 154.354C253.259 154.743 250.168 154.938 247.074 154.938Z" fill="#3F3D56"/>
<path d="M276.114 36.8683C273.742 30.5936 273.958 23.6329 276.715 17.5176C279.473 11.4023 284.546 6.63328 290.819 4.25969C297.092 1.88609 304.05 2.10235 310.163 4.86089C316.277 7.61942 321.044 12.6943 323.417 18.969L322.573 19.2883C320.285 13.2374 315.688 8.34354 309.793 5.68339C303.897 3.02323 297.187 2.81465 291.138 5.10356C285.089 7.39247 280.197 11.9914 277.538 17.8885C274.878 23.7857 274.67 30.498 276.958 36.549L276.114 36.8683Z" fill="#3F3D56"/>
<path d="M349.367 81.0179H303.53C302.301 81.0165 301.124 80.5278 300.255 79.6589C299.386 78.79 298.898 77.6119 298.896 76.383V15.6704C298.898 14.4416 299.386 13.2635 300.255 12.3946C301.124 11.5257 302.301 11.0369 303.53 11.0355H349.367C350.595 11.0369 351.773 11.5257 352.641 12.3946C353.51 13.2635 353.999 14.4416 354 15.6704V76.383C353.999 77.6119 353.51 78.79 352.641 79.6589C351.773 80.5278 350.595 81.0165 349.367 81.0179Z" fill="#E6E6E6"/>
<path d="M331.155 77.3804H306.752C305.601 77.3791 304.498 76.9214 303.685 76.1076C302.871 75.2938 302.414 74.1905 302.412 73.0396V19.0137C302.414 17.8628 302.871 16.7595 303.685 15.9457C304.498 15.132 305.601 14.6742 306.752 14.673H346.145C347.295 14.6743 348.398 15.132 349.212 15.9457C350.025 16.7595 350.483 17.8628 350.484 19.0137V58.0453C350.478 63.1715 348.44 68.0861 344.816 71.7109C341.193 75.3357 336.28 77.3746 331.155 77.3804Z" fill="white"/>
<path d="M342.215 41.7661H310.682C310.409 41.7661 310.147 41.6577 309.954 41.4648C309.762 41.2719 309.653 41.0102 309.653 40.7374C309.653 40.4645 309.762 40.2029 309.954 40.0099C310.147 39.817 310.409 39.7086 310.682 39.7086H342.215C342.488 39.7086 342.749 39.817 342.942 40.0099C343.135 40.2029 343.243 40.4645 343.243 40.7374C343.243 41.0102 343.135 41.2719 342.942 41.4648C342.749 41.6577 342.488 41.7661 342.215 41.7661Z" fill="#E4E4E4"/>
<path d="M342.215 45.8313H310.682C310.409 45.8307 310.148 45.7221 309.956 45.5292C309.763 45.3363 309.655 45.075 309.655 44.8025C309.655 44.53 309.763 44.2686 309.956 44.0758C310.148 43.8829 310.409 43.7743 310.682 43.7737H342.215C342.488 43.7737 342.749 43.8821 342.942 44.075C343.135 44.2679 343.243 44.5296 343.243 44.8025C343.243 45.0753 343.135 45.337 342.942 45.5299C342.749 45.7229 342.488 45.8313 342.215 45.8313Z" fill="#E4E4E4"/>
<path d="M324.35 49.8962H310.682C310.409 49.8962 310.147 49.7878 309.954 49.5949C309.761 49.4019 309.653 49.1403 309.653 48.8674C309.653 48.5946 309.761 48.3329 309.954 48.1399C310.147 47.947 310.409 47.8386 310.682 47.8386H324.35C324.623 47.8386 324.885 47.947 325.078 48.1399C325.271 48.3329 325.379 48.5946 325.379 48.8674C325.379 49.1403 325.271 49.4019 325.078 49.5949C324.885 49.7878 324.623 49.8962 324.35 49.8962Z" fill="#E4E4E4"/>
<path d="M342.215 25.1655H310.682C310.409 25.1655 310.147 25.0571 309.954 24.8642C309.762 24.6713 309.653 24.4096 309.653 24.1368C309.653 23.8639 309.762 23.6023 309.954 23.4093C310.147 23.2164 310.409 23.108 310.682 23.108H342.215C342.488 23.108 342.749 23.2164 342.942 23.4093C343.135 23.6023 343.243 23.8639 343.243 24.1368C343.243 24.4096 343.135 24.6713 342.942 24.8642C342.749 25.0571 342.488 25.1655 342.215 25.1655Z" fill="#E4E4E4"/>
<path d="M342.215 29.2307H310.682C310.409 29.2307 310.147 29.1223 309.954 28.9294C309.761 28.7364 309.653 28.4747 309.653 28.2019C309.653 27.929 309.761 27.6674 309.954 27.4744C310.147 27.2815 310.409 27.1731 310.682 27.1731H342.215C342.488 27.1731 342.749 27.2815 342.942 27.4744C343.135 27.6674 343.243 27.929 343.243 28.2019C343.243 28.4747 343.135 28.7364 342.942 28.9294C342.749 29.1223 342.488 29.2307 342.215 29.2307Z" fill="#E4E4E4"/>
<path d="M324.351 33.2957H310.682C310.409 33.2952 310.148 33.1865 309.956 32.9937C309.763 32.8008 309.655 32.5394 309.655 32.267C309.655 31.9945 309.763 31.7331 309.956 31.5403C310.148 31.3474 310.409 31.2387 310.682 31.2382H324.351C324.623 31.2387 324.884 31.3474 325.076 31.5403C325.269 31.7331 325.377 31.9945 325.377 32.267C325.377 32.5394 325.269 32.8008 325.076 32.9937C324.884 33.1865 324.623 33.2952 324.351 33.2957Z" fill="#E4E4E4"/>
<path d="M342.215 58.9476H310.682C310.409 58.9476 310.147 58.8392 309.954 58.6463C309.762 58.4534 309.653 58.1917 309.653 57.9189C309.653 57.646 309.762 57.3844 309.954 57.1914C310.147 56.9985 310.409 56.8901 310.682 56.8901H342.215C342.488 56.8901 342.749 56.9985 342.942 57.1914C343.135 57.3844 343.243 57.646 343.243 57.9189C343.243 58.1917 343.135 58.4534 342.942 58.6463C342.749 58.8392 342.488 58.9476 342.215 58.9476Z" fill="#FAC033"/>
<path d="M315.614 63.0128H310.682C310.409 63.0122 310.148 62.9036 309.956 62.7107C309.763 62.5178 309.655 62.2565 309.655 61.984C309.655 61.7115 309.763 61.4502 309.956 61.2573C310.148 61.0644 310.409 60.9558 310.682 60.9552H315.614C315.887 60.9552 316.149 61.0636 316.341 61.2565C316.534 61.4495 316.643 61.7111 316.643 61.984C316.643 62.2568 316.534 62.5185 316.341 62.7114C316.149 62.9044 315.887 63.0128 315.614 63.0128Z" fill="#FAC033"/>
<path d="M324.35 67.0777H310.682C310.409 67.0777 310.147 66.9693 309.954 66.7764C309.761 66.5835 309.653 66.3218 309.653 66.0489C309.653 65.7761 309.761 65.5144 309.954 65.3215C310.147 65.1285 310.409 65.0201 310.682 65.0201H324.35C324.623 65.0201 324.885 65.1285 325.078 65.3215C325.271 65.5144 325.379 65.7761 325.379 66.0489C325.379 66.3218 325.271 66.5835 325.078 66.7764C324.885 66.9693 324.623 67.0777 324.35 67.0777Z" fill="#FAC033"/>
<path d="M174.973 78.9827C171.001 68.4641 171.367 56.7981 175.992 46.5498C180.616 36.3014 189.12 28.3096 199.633 24.3313C210.146 20.3531 221.809 20.7142 232.056 25.3352C242.303 29.9562 250.296 38.4588 254.278 48.9736L253.435 49.2929C251.508 44.1929 248.596 39.5225 244.865 35.5485C241.134 31.5745 236.656 28.3748 231.689 26.1321C226.721 23.8894 221.36 22.6476 215.913 22.4778C210.465 22.308 205.037 23.2134 199.94 25.1424C194.842 27.0713 190.174 29.986 186.203 33.7199C182.232 37.4538 179.035 41.9337 176.794 46.9039C174.554 51.874 173.315 57.2369 173.147 62.6863C172.979 68.1357 173.886 73.5647 175.817 78.6633L174.973 78.9827Z" fill="#3F3D56"/>
<path d="M253.792 9.82986C256.169 9.82986 258.096 7.9023 258.096 5.52455C258.096 3.14679 256.169 1.21924 253.792 1.21924C251.415 1.21924 249.488 3.14679 249.488 5.52455C249.488 7.9023 251.415 9.82986 253.792 9.82986Z" fill="#E6E6E6"/>
<path d="M259.653 133.856C262.03 133.856 263.957 131.929 263.957 129.551C263.957 127.173 262.03 125.246 259.653 125.246C257.276 125.246 255.349 127.173 255.349 129.551C255.349 131.929 257.276 133.856 259.653 133.856Z" fill="#E6E6E6"/>
<path d="M149.193 31.4782C151.57 31.4782 153.497 29.5506 153.497 27.1729C153.497 24.7951 151.57 22.8676 149.193 22.8676C146.816 22.8676 144.889 24.7951 144.889 27.1729C144.889 29.5506 146.816 31.4782 149.193 31.4782Z" fill="#E6E6E6"/>
<path d="M208.613 204.079H110.085C107.445 204.076 104.913 203.025 103.046 201.157C101.179 199.289 100.129 196.757 100.126 194.116V63.6115C100.129 60.9702 101.179 58.4378 103.046 56.57C104.913 54.7023 107.445 53.6517 110.085 53.6487H208.613C211.254 53.6517 213.785 54.7023 215.652 56.57C217.519 58.4378 218.57 60.9701 218.573 63.6115V194.116C218.57 196.757 217.519 199.289 215.652 201.157C213.785 203.025 211.254 204.076 208.613 204.079Z" fill="#E6E6E6"/>
<path d="M171.008 196.001H117.011C114.607 195.998 112.302 195.041 110.602 193.341C108.902 191.64 107.945 189.334 107.943 186.929V70.7981C107.945 68.393 108.902 66.0873 110.602 64.3866C112.302 62.686 114.607 61.7294 117.011 61.7267H201.687C204.092 61.7294 206.397 62.686 208.097 64.3866C209.797 66.0873 210.753 68.393 210.756 70.7981V156.24C210.744 166.781 206.552 176.888 199.101 184.342C191.649 191.796 181.546 195.989 171.008 196.001Z" fill="white"/>
<path d="M193.24 84.0217H125.458C125.167 84.0222 124.88 83.9653 124.611 83.8543C124.343 83.7434 124.098 83.5806 123.893 83.3752C123.687 83.1698 123.524 82.9259 123.413 82.6574C123.302 82.3889 123.244 82.1011 123.244 81.8104C123.244 81.5198 123.302 81.232 123.413 80.9635C123.524 80.695 123.687 80.4511 123.893 80.2457C124.098 80.0403 124.343 79.8775 124.611 79.7665C124.88 79.6556 125.167 79.5987 125.458 79.5991H193.24C193.531 79.5987 193.819 79.6556 194.087 79.7665C194.356 79.8775 194.6 80.0403 194.805 80.2457C195.011 80.4511 195.174 80.695 195.285 80.9635C195.397 81.232 195.454 81.5198 195.454 81.8104C195.454 82.1011 195.397 82.3889 195.285 82.6574C195.174 82.9259 195.011 83.1698 194.805 83.3752C194.6 83.5806 194.356 83.7434 194.087 83.8543C193.819 83.9653 193.531 84.0222 193.24 84.0217Z" fill="#FAC033"/>
<path d="M193.24 92.7596H125.458C124.872 92.7596 124.309 92.5267 123.895 92.1119C123.48 91.6972 123.247 91.1347 123.247 90.5482C123.247 89.9617 123.48 89.3992 123.895 88.9845C124.309 88.5698 124.872 88.3368 125.458 88.3368H193.24C193.827 88.3368 194.389 88.5698 194.803 88.9845C195.218 89.3992 195.451 89.9617 195.451 90.5482C195.451 91.1347 195.218 91.6972 194.803 92.1119C194.389 92.5267 193.827 92.7596 193.24 92.7596Z" fill="#FAC033"/>
<path d="M154.84 101.498H125.458C124.872 101.498 124.309 101.265 123.895 100.85C123.48 100.435 123.247 99.8728 123.247 99.2863C123.247 98.6998 123.48 98.1373 123.895 97.7225C124.309 97.3078 124.872 97.0748 125.458 97.0748H154.84C155.426 97.0748 155.989 97.3078 156.403 97.7225C156.818 98.1373 157.051 98.6998 157.051 99.2863C157.051 99.8728 156.818 100.435 156.403 100.85C155.989 101.265 155.426 101.498 154.84 101.498Z" fill="#FAC033"/>
<path d="M193.24 119.798H125.458C125.167 119.799 124.88 119.742 124.611 119.631C124.343 119.52 124.098 119.357 123.893 119.152C123.687 118.946 123.524 118.703 123.413 118.434C123.302 118.166 123.244 117.878 123.244 117.587C123.244 117.296 123.302 117.009 123.413 116.74C123.524 116.472 123.687 116.228 123.893 116.022C124.098 115.817 124.343 115.654 124.611 115.543C124.88 115.432 125.167 115.375 125.458 115.376H193.24C193.531 115.375 193.819 115.432 194.087 115.543C194.356 115.654 194.6 115.817 194.805 116.022C195.011 116.228 195.174 116.472 195.285 116.74C195.397 117.009 195.454 117.296 195.454 117.587C195.454 117.878 195.397 118.166 195.285 118.434C195.174 118.703 195.011 118.946 194.805 119.152C194.6 119.357 194.356 119.52 194.087 119.631C193.819 119.742 193.531 119.799 193.24 119.798Z" fill="#E4E4E4"/>
<path d="M193.24 128.536H125.458C124.872 128.536 124.309 128.303 123.895 127.889C123.48 127.474 123.247 126.911 123.247 126.325C123.247 125.738 123.48 125.176 123.895 124.761C124.309 124.347 124.872 124.114 125.458 124.114H193.24C193.827 124.114 194.389 124.347 194.803 124.761C195.218 125.176 195.451 125.738 195.451 126.325C195.451 126.911 195.218 127.474 194.803 127.889C194.389 128.303 193.827 128.536 193.24 128.536Z" fill="#E4E4E4"/>
<path d="M154.84 137.274H125.458C124.872 137.274 124.309 137.041 123.895 136.627C123.48 136.212 123.247 135.649 123.247 135.063C123.247 134.476 123.48 133.914 123.895 133.499C124.309 133.085 124.872 132.852 125.458 132.852H154.84C155.426 132.852 155.989 133.085 156.403 133.499C156.818 133.914 157.051 134.476 157.051 135.063C157.051 135.649 156.818 136.212 156.403 136.627C155.989 137.041 155.426 137.274 154.84 137.274Z" fill="#E4E4E4"/>
<path d="M193.24 155.575H125.458C125.167 155.575 124.88 155.519 124.611 155.408C124.343 155.297 124.098 155.134 123.893 154.928C123.687 154.723 123.524 154.479 123.413 154.211C123.302 153.942 123.244 153.654 123.244 153.364C123.244 153.073 123.302 152.785 123.413 152.517C123.524 152.248 123.687 152.004 123.893 151.799C124.098 151.594 124.343 151.431 124.611 151.32C124.88 151.209 125.167 151.152 125.458 151.152H193.24C193.531 151.152 193.819 151.209 194.087 151.32C194.356 151.431 194.6 151.594 194.805 151.799C195.011 152.004 195.174 152.248 195.285 152.517C195.397 152.785 195.454 153.073 195.454 153.364C195.454 153.654 195.397 153.942 195.285 154.211C195.174 154.479 195.011 154.723 194.805 154.928C194.6 155.134 194.356 155.297 194.087 155.408C193.819 155.519 193.531 155.575 193.24 155.575Z" fill="#E4E4E4"/>
<path d="M193.24 164.313H125.458C124.872 164.313 124.309 164.08 123.895 163.665C123.48 163.251 123.247 162.688 123.247 162.102C123.247 161.515 123.48 160.953 123.895 160.538C124.309 160.123 124.872 159.89 125.458 159.89H193.24C193.827 159.89 194.389 160.123 194.803 160.538C195.218 160.953 195.451 161.515 195.451 162.102C195.451 162.688 195.218 163.251 194.803 163.665C194.389 164.08 193.827 164.313 193.24 164.313Z" fill="#E4E4E4"/>
<path d="M154.84 173.051H125.458C124.872 173.05 124.311 172.817 123.897 172.402C123.483 171.988 123.25 171.426 123.25 170.84C123.25 170.254 123.483 169.692 123.897 169.277C124.311 168.862 124.872 168.629 125.458 168.628H154.84C155.426 168.629 155.987 168.862 156.401 169.277C156.815 169.692 157.048 170.254 157.048 170.84C157.048 171.426 156.815 171.988 156.401 172.402C155.987 172.817 155.426 173.05 154.84 173.051Z" fill="#E4E4E4"/>
<path d="M284.527 107.176H234.63C233.293 107.175 232.011 106.643 231.065 105.697C230.12 104.751 229.588 103.469 229.586 102.131V36.0408C229.588 34.7031 230.12 33.4207 231.065 32.4748C232.011 31.5289 233.293 30.9969 234.63 30.9954H284.527C285.864 30.9969 287.146 31.5289 288.092 32.4748C289.037 33.4207 289.569 34.7031 289.571 36.0408V102.131C289.569 103.468 289.037 104.751 288.092 105.697C287.146 106.643 285.864 107.175 284.527 107.176Z" fill="#E6E6E6"/>
<path d="M266.03 103.197H238.137C236.89 103.195 235.695 102.699 234.813 101.817C233.931 100.935 233.435 99.7388 233.434 98.4913V39.6802C233.435 38.4328 233.931 37.2368 234.813 36.3546C235.695 35.4725 236.89 34.9763 238.137 34.9749H281.019C282.267 34.9763 283.462 35.4724 284.344 36.3546C285.226 37.2367 285.722 38.4327 285.723 39.6802V83.4969C285.717 88.7198 283.641 93.727 279.949 97.4202C276.257 101.113 271.251 103.191 266.03 103.197Z" fill="white"/>
<path d="M276.742 46.3769H242.415C242.118 46.3769 241.834 46.2589 241.624 46.0489C241.414 45.8389 241.296 45.5541 241.296 45.2571C241.296 44.9601 241.414 44.6752 241.624 44.4652C241.834 44.2552 242.118 44.1372 242.415 44.1372H276.742C277.039 44.1372 277.323 44.2552 277.533 44.4652C277.743 44.6752 277.861 44.9601 277.861 45.2571C277.861 45.5541 277.743 45.8389 277.533 46.0489C277.323 46.2589 277.039 46.3769 276.742 46.3769Z" fill="#E4E4E4"/>
<path d="M276.742 50.8021H242.415C242.119 50.8015 241.835 50.6832 241.625 50.4733C241.416 50.2633 241.298 49.9788 241.298 49.6822C241.298 49.3855 241.416 49.101 241.625 48.8911C241.835 48.6811 242.119 48.5629 242.415 48.5623H276.742C277.038 48.5629 277.322 48.6811 277.532 48.8911C277.741 49.101 277.859 49.3855 277.859 49.6822C277.859 49.9788 277.741 50.2633 277.532 50.4733C277.322 50.6832 277.038 50.8015 276.742 50.8021Z" fill="#E4E4E4"/>
<path d="M257.295 55.2271H242.415C242.119 55.2265 241.835 55.1083 241.625 54.8983C241.416 54.6884 241.298 54.4039 241.298 54.1072C241.298 53.8106 241.416 53.5261 241.625 53.3161C241.835 53.1062 242.119 52.9879 242.415 52.9873H257.295C257.592 52.9879 257.876 53.1062 258.085 53.3161C258.295 53.5261 258.412 53.8106 258.412 54.1072C258.412 54.4039 258.295 54.6884 258.085 54.8983C257.876 55.1083 257.592 55.2265 257.295 55.2271Z" fill="#E4E4E4"/>
<path d="M276.742 64.4949H242.415C242.118 64.4949 241.834 64.377 241.624 64.1669C241.414 63.9569 241.296 63.6721 241.296 63.3751C241.296 63.0781 241.414 62.7933 241.624 62.5832C241.834 62.3732 242.118 62.2552 242.415 62.2552H276.742C277.039 62.2552 277.323 62.3732 277.533 62.5832C277.743 62.7933 277.861 63.0781 277.861 63.3751C277.861 63.6721 277.743 63.9569 277.533 64.1669C277.323 64.377 277.039 64.4949 276.742 64.4949Z" fill="#FAC033"/>
<path d="M267.724 68.9201H242.415C242.118 68.9201 241.834 68.8021 241.624 68.5921C241.414 68.3821 241.296 68.0972 241.296 67.8002C241.296 67.5032 241.414 67.2183 241.624 67.0083C241.834 66.7983 242.118 66.6803 242.415 66.6803H267.724C268.021 66.6803 268.306 66.7983 268.516 67.0083C268.726 67.2183 268.844 67.5032 268.844 67.8002C268.844 68.0972 268.726 68.3821 268.516 68.5921C268.306 68.8021 268.021 68.9201 267.724 68.9201Z" fill="#FAC033"/>
<path d="M257.295 73.3453H242.415C242.119 73.3447 241.835 73.2265 241.625 73.0165C241.416 72.8065 241.298 72.522 241.298 72.2254C241.298 71.9288 241.416 71.6442 241.625 71.4343C241.835 71.2243 242.119 71.1061 242.415 71.1055H257.295C257.592 71.1061 257.876 71.2243 258.085 71.4343C258.295 71.6442 258.412 71.9288 258.412 72.2254C258.412 72.522 258.295 72.8065 258.085 73.0165C257.876 73.2265 257.592 73.3447 257.295 73.3453Z" fill="#FAC033"/>
<path d="M276.742 82.6131H242.415C242.118 82.6131 241.834 82.4951 241.624 82.2851C241.414 82.0751 241.296 81.7903 241.296 81.4933C241.296 81.1963 241.414 80.9114 241.624 80.7014C241.834 80.4914 242.118 80.3734 242.415 80.3734H276.742C277.039 80.3734 277.323 80.4914 277.533 80.7014C277.743 80.9114 277.861 81.1963 277.861 81.4933C277.861 81.7903 277.743 82.0751 277.533 82.2851C277.323 82.4951 277.039 82.6131 276.742 82.6131Z" fill="#E4E4E4"/>
<path d="M276.742 87.0382H242.415C242.118 87.0382 241.834 86.9202 241.624 86.7102C241.414 86.5001 241.296 86.2153 241.296 85.9183C241.296 85.6212 241.414 85.3364 241.624 85.1264C241.834 84.9163 242.118 84.7983 242.415 84.7983H276.742C277.039 84.7983 277.323 84.9163 277.533 85.1264C277.743 85.3364 277.861 85.6212 277.861 85.9183C277.861 86.2153 277.743 86.5001 277.533 86.7102C277.323 86.9202 277.039 87.0382 276.742 87.0382Z" fill="#E4E4E4"/>
<path d="M257.295 91.4633H242.415C242.119 91.4627 241.835 91.3445 241.625 91.1345C241.416 90.9246 241.298 90.64 241.298 90.3434C241.298 90.0468 241.416 89.7623 241.625 89.5523C241.835 89.3423 242.119 89.2241 242.415 89.2235H257.295C257.592 89.2241 257.876 89.3423 258.085 89.5523C258.295 89.7623 258.412 90.0468 258.412 90.3434C258.412 90.64 258.295 90.9246 258.085 91.1345C257.876 91.3445 257.592 91.4627 257.295 91.4633Z" fill="#E4E4E4"/>
<path d="M58.3393 129.882C58.7214 129.467 59.0076 128.972 59.178 128.433C59.3483 127.895 59.3985 127.326 59.3251 126.766C59.2516 126.206 59.0563 125.669 58.753 125.192C58.4496 124.716 58.0455 124.312 57.5691 124.009L60.7343 110.649L54.0352 113.098L52.0565 125.408C51.6004 126.243 51.4659 127.215 51.6788 128.142C51.8916 129.069 52.4369 129.885 53.2114 130.437C53.9858 130.988 54.9355 131.237 55.8806 131.134C56.8257 131.032 57.7005 130.587 58.3393 129.882L58.3393 129.882Z" fill="#FFB8B8"/>
<path d="M74.449 73.9002L71.7604 80.8158C71.7604 80.8158 72.9127 87.7314 70.9923 89.2682C69.0719 90.805 69.8401 90.805 69.8401 91.9576C69.7739 92.7843 69.5345 93.5879 69.1375 94.316C68.7405 95.0441 68.1947 95.6805 67.5356 96.1838C65.9993 97.3363 59.0859 120.773 59.0859 120.773H52.1726C52.3959 118.987 52.3959 117.18 52.1726 115.394C51.7885 112.704 53.3248 105.789 54.0929 104.636C54.8611 103.484 54.0929 101.947 54.0929 99.6416C54.0929 97.3363 55.6293 96.1838 55.6293 92.3418C55.6293 88.4998 60.2382 58.5322 59.8541 55.0744C59.47 51.6166 63.6948 48.543 63.6948 48.543H67.5356L74.449 73.9002Z" fill="#FAC033"/>
<path d="M90.7158 88.5683L97.1058 117.094L56.1573 114.546L67.2922 86.5311L90.7158 88.5683Z" fill="#FFB8B8"/>
<path d="M1.4584 195.783C2.67737 200.191 4.58062 204.381 7.09866 208.199C12.7254 216.709 20.7778 223.217 29.6281 228.427C30.2413 228.792 30.8635 229.148 31.4857 229.5H37.694L37.9104 229.004V228.999L38.1629 228.427L38.1945 228.359L38.208 228.427L38.456 229.5H41.5037C41.7562 229.144 42.0042 228.787 42.2477 228.427C42.6038 227.899 42.9465 227.367 43.2711 226.825C43.8441 225.879 44.3561 224.897 44.804 223.885C44.8581 223.772 44.9032 223.659 44.9483 223.547L44.7454 223.326L45.5885 219.636L43.8933 219.357L45.7508 213.625C45.6832 213.413 45.6065 213.201 45.5254 212.989C44.4839 210.35 42.5272 208.379 40.2052 206.724C37.8157 205.015 35.0339 203.644 32.4775 202.219C31.2782 201.547 30.097 200.839 28.9473 200.09V200.085C27.4775 199.134 26.0513 198.116 24.6686 197.032C24.645 197.017 24.6224 197 24.601 196.982C24.5819 196.969 24.5638 196.954 24.5469 196.937C18.3484 192.093 13.1031 186.14 9.07786 179.38C9.07726 179.38 9.07667 179.38 9.07612 179.379C9.07556 179.379 9.07506 179.379 9.07464 179.378C9.07422 179.378 9.07389 179.377 9.07367 179.377C9.07345 179.376 9.07333 179.376 9.07334 179.375C8.93812 179.159 8.81192 178.942 8.68567 178.721V178.717C7.03726 175.881 5.61852 172.917 4.44307 169.854V169.85C4.35286 169.624 4.27175 169.399 4.18608 169.173C4.06886 169.372 3.95615 169.57 3.84794 169.769C3.84734 169.769 3.84675 169.769 3.8462 169.769C3.84565 169.769 3.84514 169.77 3.84472 169.77C3.8443 169.771 3.84397 169.771 3.84375 169.772C3.84353 169.772 3.84341 169.773 3.84343 169.773C-0.529912 177.598 -0.944719 187.024 1.4584 195.783Z" fill="#F0F0F0"/>
<path d="M3.84346 169.773C3.79967 173.949 4.23379 178.117 5.13737 182.194C5.54343 184.06 6.04914 185.903 6.65231 187.714C7.8232 191.259 9.35355 194.674 11.2195 197.907C11.3232 198.083 11.4224 198.254 11.5306 198.426V198.43C12.3281 199.775 13.1933 201.079 14.123 202.336C15.53 204.339 17.2682 206.087 19.2628 207.504C20.8921 208.581 22.7345 209.294 24.6641 209.593C25.0248 209.66 25.3945 209.71 25.7688 209.755C27.2611 209.931 28.8031 209.999 30.2819 210.314C31.0309 210.462 31.7602 210.697 32.455 211.013C34.8356 212.118 36.1746 214.432 36.7608 216.903C36.8645 217.336 36.9456 217.774 37.0087 218.211C37.5001 221.571 36.9591 225.062 37.2386 228.427C37.2702 228.783 37.3108 229.144 37.3603 229.5H37.694L37.9104 229.004V228.999C37.8879 228.81 37.8699 228.621 37.8518 228.427C37.7436 226.774 37.7301 225.116 37.8112 223.461C37.8292 222.717 37.8428 221.968 37.8337 221.22C37.8247 220.62 37.8022 220.02 37.7571 219.425V219.42C37.7255 219.05 37.6895 218.685 37.6399 218.32C37.4967 217.201 37.2213 216.103 36.8193 215.05C36.4271 213.964 35.8098 212.974 35.0079 212.144C34.206 211.314 33.2377 210.662 32.1665 210.233C31.5121 209.988 30.8378 209.799 30.1511 209.669C28.6408 209.381 27.0808 209.308 25.5614 209.119C25.399 209.101 25.2367 209.078 25.0789 209.051C24.876 209.02 24.6777 208.984 24.4793 208.948C22.4913 208.595 20.6136 207.781 18.9968 206.571C17.0754 205.049 15.4049 203.235 14.0464 201.195C13.307 200.135 12.6036 199.053 11.9499 197.939C11.9499 197.938 11.9498 197.937 11.9496 197.937C11.9494 197.936 11.949 197.936 11.9486 197.935C11.9482 197.935 11.9477 197.935 11.9471 197.934C11.9466 197.934 11.946 197.934 11.9454 197.934C11.9138 197.88 11.8823 197.83 11.8507 197.776L11.8462 197.767C9.04206 192.974 6.99505 187.775 5.77759 182.356C5.73701 182.158 5.6919 181.959 5.64688 181.761C4.81007 177.848 4.40637 173.856 4.44308 169.855V169.85C4.44308 169.661 4.44754 169.476 4.45205 169.286C4.46107 168.898 3.86146 168.813 3.85248 169.201C3.84798 169.39 3.84347 169.579 3.84798 169.769C3.84738 169.769 3.84679 169.769 3.84623 169.769C3.84568 169.769 3.84517 169.77 3.84475 169.77C3.84433 169.771 3.844 169.771 3.84377 169.772C3.84355 169.772 3.84345 169.773 3.84346 169.773Z" fill="white"/>
<path d="M11.7879 198.303C10.0699 199.176 8.09765 199.41 6.22335 198.962C4.34906 198.515 2.69479 197.416 1.55597 195.861C1.32662 195.545 1.80582 195.174 2.03547 195.49C3.09327 196.94 4.63433 197.964 6.38053 198.377C8.12672 198.79 9.963 198.565 11.558 197.743C11.9048 197.564 12.1328 198.126 11.7879 198.303Z" fill="white"/>
<path d="M24.4214 209.127C25.6768 205.393 25.4789 201.322 23.867 197.726C23.707 197.37 24.2679 197.141 24.4277 197.496C26.098 201.241 26.2954 205.478 24.9804 209.361C24.8548 209.731 24.2965 209.495 24.4213 209.127H24.4214Z" fill="white"/>
<path d="M5.4727 181.816C6.20779 181.617 6.88192 181.239 7.43454 180.714C7.98716 180.19 8.40097 179.537 8.6388 178.813C8.75963 178.442 9.31791 178.678 9.19787 179.047C8.93138 179.845 8.47349 180.566 7.86421 181.147C7.25493 181.727 6.5128 182.15 5.70267 182.377C5.6281 182.405 5.54574 182.403 5.47231 182.373C5.39888 182.342 5.3399 182.285 5.30736 182.212C5.27728 182.137 5.27778 182.054 5.30874 181.98C5.3397 181.906 5.39863 181.847 5.47271 181.816H5.4727Z" fill="white"/>
<path d="M28.9474 200.085V200.09C29.0872 203.31 29.4898 206.514 30.1511 209.669V209.674C30.1872 209.89 30.2368 210.102 30.2819 210.314C31.3701 215.194 32.8957 219.965 34.8401 224.57C35.3766 225.869 35.9387 227.155 36.5263 228.427C36.6886 228.787 36.8555 229.144 37.0267 229.5H37.6941L37.9105 229.004V228.999L38.1629 228.427L38.1945 228.359L38.208 228.427L38.456 229.5H44.9033L46.1566 228.427L47.9826 226.862L45.4308 224.074L45.0115 223.614L44.9484 223.547L44.7455 223.326L45.5885 219.636L43.8933 219.357L45.7509 213.625L46.6301 210.914L46.851 210.233L48.136 206.269L52.0133 206.995L52.6446 204.785C51.4824 202.09 50.5151 199.315 49.7501 196.482C49.7456 196.459 49.7365 196.441 49.732 196.419C47.6835 188.787 47.069 180.841 47.9196 172.984V172.98C47.9466 172.727 47.9782 172.47 48.0143 172.222V172.213C48.4007 168.957 49.0521 165.739 49.962 162.589C50.0251 162.35 50.0972 162.115 50.1649 161.881C49.9575 161.971 49.7546 162.057 49.5472 162.147L49.5427 162.151H49.5337C49.2045 162.296 48.8754 162.449 48.5553 162.611C40.8636 166.35 35.2054 173.368 31.9907 181.459C31.9817 181.481 31.9727 181.499 31.9637 181.522C30.2863 185.764 29.2867 190.243 29.0015 194.795C28.8934 196.556 28.8753 198.322 28.9474 200.085Z" fill="#F0F0F0"/>
<path d="M40.6471 229.5H41.3595C41.5849 229.135 41.8284 228.778 42.0719 228.427C42.4596 227.881 42.8594 227.347 43.2711 226.826C43.6273 226.375 43.9835 225.928 44.3397 225.482C44.7094 225.017 45.0746 224.552 45.4308 224.074L45.0115 223.614C44.9438 223.705 44.8762 223.795 44.804 223.885C43.6499 225.405 42.401 226.866 41.3324 228.427C41.0935 228.778 40.8635 229.135 40.6471 229.5Z" fill="white"/>
<path d="M50.3144 162.133C50.1972 162.282 50.0755 162.435 49.9628 162.588C49.0836 163.729 48.2525 164.906 47.4695 166.12C46.075 168.26 44.8365 170.498 43.7634 172.817C43.6778 172.997 43.5921 173.182 43.511 173.367C41.2148 178.434 39.7182 183.826 39.0745 189.351C39.0655 189.405 39.061 189.455 39.0565 189.509C38.9077 190.799 38.8115 192.093 38.7679 193.392C38.6241 195.838 38.866 198.291 39.4848 200.662C39.575 200.973 39.6741 201.28 39.7823 201.578C40.0536 202.307 40.3932 203.009 40.7968 203.675C41.0867 204.161 41.4091 204.626 41.7616 205.068C41.9735 205.339 42.1944 205.605 42.4289 205.862C42.5642 206.011 42.7039 206.16 42.8437 206.309C42.9609 206.421 43.0736 206.539 43.1908 206.651C44.4082 207.833 45.7517 208.929 46.8518 210.232L46.6309 210.913C45.5714 209.569 44.2053 208.455 42.9744 207.283C42.2017 206.556 41.4984 205.759 40.8734 204.902C40.7923 204.784 40.7066 204.667 40.63 204.545C40.2122 203.935 39.8515 203.287 39.5524 202.61C39.3991 202.272 39.2594 201.925 39.1331 201.564C38.3965 199.232 38.0611 196.792 38.1412 194.348C38.1557 192.782 38.249 191.218 38.4208 189.662C38.4388 189.459 38.4613 189.261 38.4884 189.058C38.9456 185.353 39.7795 181.705 40.9771 178.17C42.4929 173.686 44.5779 169.415 47.181 165.461C47.9249 164.329 48.7139 163.224 49.548 162.146C49.6562 161.997 49.7689 161.853 49.8861 161.704C50.1251 161.398 50.5534 161.826 50.3144 162.133Z" fill="white"/>
<path d="M38.703 189.719C36.8059 189.381 35.0905 188.38 33.8633 186.894C32.6361 185.408 31.9769 183.534 32.0035 181.607C32.0053 181.528 32.0375 181.453 32.0934 181.398C32.1492 181.343 32.2244 181.311 32.303 181.31C32.3815 181.309 32.4574 181.339 32.5146 181.393C32.5718 181.447 32.6058 181.521 32.6095 181.599C32.5815 183.394 33.1957 185.14 34.3413 186.521C35.4869 187.903 37.0885 188.829 38.8569 189.133C39.2411 189.199 39.085 189.785 38.703 189.719L38.703 189.719Z" fill="white"/>
<path d="M42.2754 205.97C45.5257 203.744 47.8178 200.375 48.6948 196.533C48.7814 196.152 49.3674 196.307 49.2809 196.687C48.3609 200.683 45.9684 204.185 42.581 206.494C42.258 206.713 41.9541 206.189 42.2754 205.97H42.2754Z" fill="white"/>
<path d="M43.5837 172.752C44.2905 173.035 45.0567 173.139 45.8135 173.053C46.5702 172.967 47.2938 172.695 47.9193 172.26C48.2394 172.037 48.5429 172.562 48.2249 172.784C47.5316 173.261 46.7321 173.561 45.8962 173.657C45.0603 173.754 44.2135 173.644 43.4298 173.338C43.3535 173.315 43.2887 173.264 43.2485 173.196C43.2084 173.127 43.1959 173.045 43.2137 172.968C43.2345 172.89 43.285 172.824 43.3543 172.784C43.4236 172.743 43.506 172.732 43.5837 172.752Z" fill="white"/>
<path d="M83.8969 220.227L88.4966 220.226L90.685 202.479H83.896L83.8969 220.227Z" fill="#FFB8B8"/>
<path d="M82.3393 217.957L89.6106 217.523V220.639L96.5236 225.415C96.8651 225.651 97.1222 225.99 97.2576 226.382C97.3929 226.774 97.3993 227.2 97.2758 227.596C97.1523 227.992 96.9054 228.339 96.5711 228.585C96.2369 228.831 95.8328 228.963 95.4179 228.963H86.7611L85.269 225.881L84.6864 228.963H81.4225L82.3393 217.957Z" fill="#2F2E41"/>
<path d="M40.4227 217.937L44.9183 218.913L50.8178 202.032L44.1834 200.593L40.4227 217.937Z" fill="#FFB8B8"/>
<path d="M39.3816 215.389L46.5796 216.507L45.9192 219.552L51.6629 225.686C51.9466 225.989 52.1261 226.374 52.1751 226.786C52.2242 227.199 52.1403 227.616 51.9356 227.977C51.7309 228.338 51.4163 228.624 51.0375 228.793C50.6587 228.963 50.2357 229.007 49.8302 228.919L41.3703 227.083L40.5654 223.754L39.3427 226.643L36.153 225.951L39.3816 215.389Z" fill="#2F2E41"/>
<path d="M8.02735 228.963C8.02714 229.034 8.04087 229.104 8.06776 229.169C8.09465 229.234 8.13416 229.293 8.18403 229.343C8.23389 229.393 8.29313 229.433 8.35832 229.46C8.42351 229.487 8.49338 229.5 8.5639 229.5H134.935C135.078 229.5 135.214 229.444 135.315 229.343C135.415 229.242 135.472 229.106 135.472 228.963C135.472 228.821 135.415 228.684 135.315 228.584C135.214 228.483 135.078 228.427 134.935 228.427H8.5639C8.49338 228.426 8.42351 228.44 8.35832 228.467C8.29313 228.494 8.2339 228.534 8.18404 228.583C8.13417 228.633 8.09465 228.692 8.06776 228.758C8.04087 228.823 8.02714 228.893 8.02735 228.963Z" fill="#CCCCCC"/>
<path d="M98.1513 140.948C94.9231 158.695 94.1161 166.358 94.1161 166.358C94.1161 166.358 96.5372 169.181 94.9231 170.796C93.309 172.41 94.9231 175.635 94.9231 175.635L90.6978 209.388L89.796 214.349L81.3342 213.154L82.5823 208.486L80.4099 176.041C80.4099 176.041 78.7958 172.812 79.6029 172.005C80.4099 171.197 78.7959 166.358 78.7959 166.358L76.7805 128.04L64.2782 169.989C64.2782 169.989 65.4909 171.603 64.2782 172.812C63.0699 174.021 60.6532 180.073 60.6532 180.073L51.4729 204.427L49.6695 208.035L48.71 207.58L44.4899 206.786L43.7144 206.642L42.3348 206.38L41.4466 206.213L41.1445 206.159L39.6837 205.884L40.1256 203.922L43.3574 199.015L46.645 174.945L46.7892 174.3L46.9425 173.619C46.9425 173.619 46.1355 171.603 47.3438 170.39C47.6973 170.02 47.9555 169.57 48.0961 169.078C48.2367 168.586 48.2555 168.067 48.1508 167.567C48.1113 167.524 48.0751 167.479 48.0426 167.431C47.8999 167.235 47.8015 167.011 47.7541 166.773C47.6459 166.268 47.7405 165.56 48.5566 164.743C48.7864 164.499 48.9793 164.223 49.1292 163.923C50.3555 161.6 50.9732 156.679 50.9732 156.679C50.9732 156.679 52.0643 117.708 55.6351 111.755C55.8245 111.443 59.6152 105.469 59.8136 105.347C63.8443 102.93 95.3024 105.818 95.3024 105.818C95.3024 105.818 97.2044 110.929 97.2901 111.462C97.7545 114.452 100.888 125.894 98.1513 140.948Z" fill="#2F2E41"/>
<path d="M130.796 54.3045C130.725 54.8649 130.532 55.4029 130.231 55.8807C129.93 56.3584 129.528 56.7643 129.053 57.0698C128.578 57.3753 128.042 57.5729 127.482 57.6486C126.923 57.7244 126.353 57.6766 125.814 57.5084L117.659 68.5514L115.203 61.8533L123.324 52.3936C123.666 51.5065 124.322 50.7758 125.167 50.3401C126.012 49.9043 126.987 49.7937 127.908 50.0293C128.829 50.2648 129.632 50.8301 130.164 51.6181C130.696 52.406 130.921 53.3619 130.796 54.3045H130.796Z" fill="#FFB8B8"/>
<path d="M56.3846 101.081C55.637 101.081 55.2123 100.934 55.0479 100.62C54.8066 100.158 55.2253 99.555 55.7101 98.8564C56.0698 98.4004 56.3534 97.8892 56.5501 97.3427C56.8401 96.1826 58.797 66.8787 57.6264 61.0235C57.3557 59.6687 57.5888 57.9321 58.319 55.862C60.3138 50.2086 63.0365 48.4711 68.4607 45.0102C68.901 44.7292 69.3595 44.4357 69.8362 44.1297C70.4528 43.7333 70.4185 42.4191 70.3822 41.0273C70.3419 39.4805 70.3001 37.8808 71.0576 36.8811L71.1069 36.8159L71.1864 36.7974C73.0187 36.3737 79.1812 35.5871 82.8308 36.8031L82.8812 36.8203L82.9188 36.8577C83.7858 37.7249 83.8648 39.4047 83.9412 41.0291C84.0037 42.3627 84.0629 43.6219 84.5534 44.1689C88.3032 48.35 92.556 48.2685 92.5991 48.2676L92.8098 48.2614L92.8307 48.4711C94.4618 65.0671 97.0912 90.116 97.65 91.1017C97.6792 91.1468 97.6955 91.1991 97.6971 91.2528C97.6988 91.3065 97.6857 91.3597 97.6592 91.4065C96.839 92.9396 59.2025 101.081 56.3846 101.081Z" fill="#FAC033"/>
<path d="M80.8769 32.0996C87.0192 32.0996 91.9984 27.1187 91.9984 20.9745C91.9984 14.8303 87.0192 9.84937 80.8769 9.84937C74.7347 9.84937 69.7554 14.8303 69.7554 20.9745C69.7554 27.1187 74.7347 32.0996 80.8769 32.0996Z" fill="#FFB8B8"/>
<path d="M88.3076 41.3107C87.7804 40.5576 85.1064 31.3582 83.9349 28.5344C83.815 29.1413 82.4715 31.4941 82.44 32.1202L82.4283 32.3522L82.1981 32.382C81.8518 32.4262 73.6721 33.4194 69.4151 28.5909C66.893 25.7308 66.3211 21.4407 67.7128 15.8374C67.4597 15.7877 67.2172 15.6943 66.9961 15.5612C66.628 15.3064 66.3199 14.9743 66.0933 14.5881C65.8667 14.2018 65.727 13.7708 65.684 13.3251L65.4484 13.3883C64.2481 13.7122 62.8943 14.1408 62.0197 15.1302C61.0461 16.2305 60.8728 17.7255 60.6889 19.3082C60.6174 20.0638 60.4983 20.8141 60.3323 21.5546C59.7392 23.9482 58.0695 26.19 55.3695 28.2181C52.6513 30.2601 49.88 31.4282 47.1323 31.6894C43.8869 31.9992 40.757 30.9326 38.7627 28.8385C36.5386 26.5039 35.9569 22.9119 37.3791 20.2978L37.6079 19.8768L37.8593 20.2848C39.1253 22.34 41.8914 23.4501 44.5868 22.9835C46.8979 22.5836 49.189 21.1157 51.038 18.8502C52.7259 16.7823 53.8901 14.3399 55.0161 11.9779C56.1614 9.57623 57.3454 7.09265 59.0509 4.98534C60.9748 2.60838 63.3757 1.0561 65.8115 0.613919C67.5854 0.293254 69.1684 0.656771 70.155 1.61332C70.8521 2.3321 71.2649 3.27937 71.317 4.27947C71.9238 4.14385 72.5563 4.18021 73.1435 4.38446C73.7099 4.61494 74.2033 4.99442 74.5716 5.48266C74.9398 5.97091 75.1691 6.54973 75.2352 7.15776C78.8093 5.27724 83.5394 5.58325 85.9859 6.99418C87.0102 7.58503 87.5984 8.32916 87.7028 9.15927C90.5924 9.32068 93.7002 12.1363 93.7002 16.1255V16.4033H93.4225C91.1356 16.4033 89.0476 17.719 87.8373 19.9226C87.1267 21.2069 86.775 22.6588 86.8192 24.126C86.8634 25.5932 87.3018 27.0213 88.0884 28.2604C88.9446 29.5747 89.5291 31.0471 89.8077 32.5909C90.0862 34.1347 90.053 35.7186 89.7102 37.2493L88.6666 41.8234L88.3076 41.3107Z" fill="#2F2E41"/>
<path d="M101.074 82.9175L93.7432 78.7924C80.9593 69.9286 77.8103 62.8896 77.4167 58.5434C76.9966 53.9061 79.4665 51.3696 79.5719 51.2643L79.6289 51.2225L86.2375 47.8448C87.077 47.4158 87.998 47.1702 88.9395 47.1242C89.881 47.0783 90.8216 47.2331 91.6988 47.5783C92.576 47.9236 93.3698 48.4514 94.0276 49.1268C94.6854 49.8022 95.1921 50.6098 95.5143 51.496L101.627 68.3131L108.404 63.3129L111.295 62.1735L113.627 59.0539L120.032 55.3168L124.791 59.6009L118.806 71.5728L115.482 72.4197L114.777 74.2365L114.714 74.2766L101.074 82.9175Z" fill="#FAC033"/>
</g>
<defs>
<clipPath id="clip0_36:371">
<rect width="354" height="229" fill="white" transform="translate(0 0.5)"/>
</clipPath>
</defs>
</svg>
